G04 DipTrace 3.0.0.2*
G04 InterfaceBoard.GBS*
%MOMM*%
G04 #@! TF.FileFunction,Soldermask,Bot*
G04 #@! TF.Part,Single*
%ADD22C,3.0*%
%ADD30R,1.6X1.6*%
%ADD31C,1.6*%
%ADD32O,1.5X2.0*%
%ADD33R,1.7X1.7*%
%ADD34C,1.7*%
%ADD40C,1.8*%
%ADD41O,1.5X2.5*%
%ADD53C,2.75*%
%FSLAX35Y35*%
G04*
G71*
G90*
G75*
G01*
G04 BotMask*
%LPD*%
D22*
X6047354Y254027D3*
Y762027D3*
Y1270027D3*
D30*
X2226077Y2111597D3*
D31*
X2476077D3*
X2676077D3*
X2926077D3*
D32*
X1936077Y1376597D3*
X3216077D3*
D33*
X347617Y603310D3*
D34*
Y349310D3*
D40*
X823930Y5112287D3*
X1077930D3*
X1331930D3*
X1585930D3*
X1839930D3*
X2093930D3*
X2347930D3*
X2601930D3*
X2855930D3*
X3109930D3*
X3363930D3*
X3617930D3*
X3871930D3*
X823930Y5366287D3*
X1077930D3*
X1331930D3*
X1585930D3*
X1839930D3*
X2093930D3*
X2347930D3*
X2601930D3*
X2855930D3*
X3109930D3*
X3363930D3*
X3617930D3*
X3871930D3*
X4125930Y5112287D3*
Y5366287D3*
X4379930Y5112287D3*
Y5366287D3*
X4633930Y5112287D3*
Y5366287D3*
X4887930Y5112287D3*
Y5366287D3*
X5141930Y5112287D3*
Y5366287D3*
X5395930Y5112287D3*
Y5366287D3*
X5649930Y5112287D3*
Y5366287D3*
D41*
X4008933Y2769287D3*
X4183933D3*
D53*
X333930Y2939287D3*
X6133930D3*
X333930Y5244287D3*
X6133930D3*
M02*
