M48
METRIC,0000.00
T01C0.406
T02C0.6
T03C1.0
T04C1.1
T05C1.5
T06C2.75
%
T01
X+000300Y+004572
X+001094Y+004509
X+001237Y+003985
X+001840Y+004001
X+002253Y+004223
X+002268Y+004715
X+001697Y+003254
X+001538Y+002985
X+001427Y+002762
X+001477Y+002653
X+001951Y+002746
X+002046Y+002653
X+001228Y+001960
X+001141Y+001588
X+001141Y+001445
X+001276Y+001389
X+001205Y+001270
X+001618Y+000968
X+000760Y+000460
X+000411Y+000127
X+000157Y+001302
X+000173Y+001762
X+000300Y+002397
X+000300Y+003620
X+003872Y+001969
X+003999Y+001969
X+004126Y+001969
X+004253Y+001969
X+004253Y+001842
X+004126Y+001842
X+004126Y+001715
X+003999Y+001715
X+003872Y+001715
X+003872Y+001588
X+003872Y+001461
X+003999Y+001461
X+004126Y+001461
X+004253Y+001461
X+004253Y+001334
X+004126Y+001334
X+003999Y+001334
X+003999Y+001588
X+004126Y+001588
X+004253Y+001588
X+004253Y+001715
X+004380Y+001715
X+004380Y+001588
X+004507Y+001588
X+004634Y+001588
X+004634Y+001461
X+004634Y+001334
X+004507Y+001334
X+004507Y+001461
X+004380Y+001461
X+004380Y+001334
X+004475Y+000984
X+003958Y+000970
X+003888Y+000970
X+003924Y+000887
X+003958Y+000820
X+003888Y+000820
X+004173Y+000540
X+004321Y+000238
X+004768Y+000300
X+004838Y+000300
X+004804Y+000367
X+004838Y+000440
X+004768Y+000440
X+005237Y+000587
X+005744Y+001460
X+005744Y+001730
X+006014Y+001794
X+006141Y+002016
X+005983Y+002238
X+005649Y+002476
X+005284Y+002476
X+005157Y+002222
X+004634Y+001969
X+004634Y+001842
X+004634Y+001715
X+004507Y+001715
X+004507Y+001842
X+004507Y+001969
X+004380Y+001969
X+004380Y+001842
X+003999Y+001842
X+003872Y+001842
T02
X+001936Y+001332G85X+001936Y+001422
X+003216Y+001332G85X+003216Y+001422
T03
X+002226Y+002112
X+002476Y+002112
X+002676Y+002112
X+002926Y+002112
X+002856Y+005112
X+002602Y+005112
X+002602Y+005366
X+002856Y+005366
X+003110Y+005366
X+003110Y+005112
X+003364Y+005112
X+003618Y+005112
X+003872Y+005112
X+003872Y+005366
X+003618Y+005366
X+003364Y+005366
X+004126Y+005366
X+004126Y+005112
X+004380Y+005112
X+004380Y+005366
X+004634Y+005366
X+004634Y+005112
X+004888Y+005112
X+004888Y+005366
X+005142Y+005366
X+005142Y+005112
X+005396Y+005112
X+005396Y+005366
X+005650Y+005366
X+005650Y+005112
X+002348Y+005112
X+002348Y+005366
X+002094Y+005366
X+001840Y+005366
X+001840Y+005112
X+002094Y+005112
X+001586Y+005112
X+001332Y+005112
X+001332Y+005366
X+001078Y+005366
X+001078Y+005112
X+000824Y+005112
X+000824Y+005366
X+001586Y+005366
T04
X+000348Y+000603
X+000348Y+000349
X+004009Y+002769
X+004184Y+002769
T05
X+006047Y+000254
X+006047Y+000762
X+006047Y+001270
T06
X+000334Y+002939
X+000334Y+005244
X+006134Y+005244
X+006134Y+002939
T00
M30
