G04 DipTrace 3.0.0.2*
G04 InterfaceBoard.GTL*
%MOMM*%
G04 #@! TF.FileFunction,Copper,L1,Top*
G04 #@! TF.Part,Single*
%AMOUTLINE0*
4,1,6,
-0.25,0.175,
0.4,0.175,
0.4,-0.175,
-0.25,-0.175,
-0.4,-0.057,
-0.4,0.057,
-0.25,0.175,
0*%
%AMOUTLINE1*
4,1,6,
0.25,-0.175,
-0.4,-0.175,
-0.4,0.175,
0.25,0.175,
0.4,0.057,
0.4,-0.057,
0.25,-0.175,
0*%
G04 #@! TA.AperFunction,Conductor*
%ADD10C,0.25*%
%ADD13C,0.3*%
G04 #@! TA.AperFunction,CopperBalancing*
%ADD14C,0.4*%
G04 #@! TA.AperFunction,Conductor*
%ADD15C,0.35*%
%ADD16C,0.6*%
%ADD17C,0.8*%
%ADD19C,1.5*%
%ADD20C,1.0*%
G04 #@! TA.AperFunction,CopperBalancing*
%ADD21C,0.33*%
G04 #@! TA.AperFunction,ComponentPad*
%ADD22C,3.0*%
%ADD23R,1.0X1.1*%
%ADD24R,1.1X1.0*%
%ADD25R,1.6X2.7*%
%ADD26R,1.3X1.5*%
%ADD28R,1.6X0.8*%
%ADD29R,1.9X3.4*%
G04 #@! TA.AperFunction,ComponentPad*
%ADD30R,1.6X1.6*%
%ADD31C,1.6*%
%ADD32O,1.5X2.0*%
%ADD33R,1.7X1.7*%
%ADD34C,1.7*%
%ADD36R,0.9X0.4*%
%ADD38R,0.65X1.05*%
G04 #@! TA.AperFunction,ComponentPad*
%ADD40C,1.8*%
%ADD41O,1.5X2.5*%
%ADD43O,0.85X0.3*%
%ADD44R,1.6X2.3*%
%ADD45R,1.65X2.4*%
%ADD46R,3.06X0.89*%
%ADD47R,8.54X5.35*%
%ADD48R,1.5X0.25*%
%ADD49R,2.2X1.8*%
%ADD50R,2.0X0.6*%
G04 #@! TA.AperFunction,ViaPad*
%ADD51C,0.9*%
%ADD57OUTLINE0*%
%ADD58OUTLINE1*%
%FSLAX35Y35*%
G04*
G71*
G90*
G75*
G01*
G04 Top*
%LPD*%
X3779263Y911983D2*
D13*
X3705987D1*
X3665470Y952500D1*
Y1206497D1*
X3332093Y1539873D1*
X2204970D1*
X1839843Y1905000D1*
Y2460627D1*
Y4000500D1*
X1522343Y2460623D2*
D14*
X1839843Y2460627D1*
X780943Y2302117D2*
X284123D1*
X187273Y2205267D1*
Y2033120D1*
Y1762127D1*
Y1643120D1*
Y1301750D1*
Y958120D1*
X522273Y1643120D2*
D10*
X411997D1*
D14*
X187273D1*
X4656863Y399903D2*
D15*
X4716863D1*
D14*
X4768343D1*
X4771863D1*
X4804363Y367403D1*
X4656863Y464900D2*
D15*
X4756320D1*
D14*
X4800257Y420963D1*
X4804363Y416857D1*
Y367403D1*
X4718357Y619190D2*
Y582237D1*
X4776717Y523877D1*
Y395050D1*
X4804363Y367403D1*
X4069263Y861983D2*
D13*
X4006763D1*
D14*
X3958343D1*
X3949263D1*
X3924263Y886983D1*
X4069263Y911983D2*
D13*
X4006763D1*
D14*
X3949263D1*
X3924263Y886983D1*
X3779263Y861983D2*
D13*
X3841763D1*
D14*
X3888343D1*
X3899263D1*
X3924263Y886983D1*
X3826893Y622177D2*
Y637673D1*
X3919470Y730250D1*
Y882190D1*
X3924263Y886983D1*
X4321440Y619190D2*
X4205153D1*
X4109970Y714373D1*
X3935347D1*
X3919470Y730250D1*
X5158260Y519287D2*
X5169007D1*
X5237093Y587373D1*
X4475093Y984250D2*
X4650623D1*
X4650727Y984353D1*
X6047354Y1270027D2*
X5770810D1*
X5729820D1*
Y1122600D1*
X5514950Y1745650D2*
X5744490D1*
X5770810D1*
X5903843D1*
Y2007697D1*
X5895990Y2015550D1*
X4999493Y1619380D2*
X4633843D1*
X4506843D1*
X4379843D1*
X4268993D1*
X4650727Y984353D2*
Y1141993D1*
X4554470Y1238250D1*
X4252843D1*
Y1333500D1*
Y1460500D1*
Y1603230D1*
X4268993Y1619380D1*
X5770810Y1745650D2*
Y1460347D1*
Y1270027D1*
X4268993Y1619380D2*
Y1714500D1*
Y1841500D1*
Y1968500D1*
Y2111597D1*
Y2301600D1*
X4284600Y2317207D1*
X4646383D1*
X2926077Y2111597D2*
X4268993D1*
X4804363Y367403D2*
D3*
X3924263Y886983D2*
D3*
X950943Y1206720D2*
X1141563D1*
X1204843Y1270000D1*
X4252843Y1587500D2*
X4284593D1*
Y1619380D1*
X4268993D1*
X780943Y2302117D2*
Y3678273D1*
X522217Y3937000D1*
Y4921250D1*
X649217Y5048250D1*
Y5064123D1*
X665093Y5080000D1*
Y5508623D1*
X4887843D1*
Y5366373D1*
X4887930Y5366287D1*
X1839930Y5112287D2*
Y4921250D1*
X3871930D1*
X5665717D1*
X5681593Y4937127D1*
Y5080623D1*
X5649930Y5112287D1*
X3871930D2*
Y4921250D1*
X1936077Y1376597D2*
X1930563D1*
X1617593Y1063627D1*
Y968373D1*
Y714373D1*
X1708343Y623623D1*
Y412707D1*
Y170127D1*
X1601717Y63500D1*
X284090D1*
X77717Y269873D1*
Y698500D1*
X188843Y809627D1*
Y956550D1*
X187273Y958120D1*
X157093Y1301750D2*
X187273D1*
X172970Y1762127D2*
X187273D1*
X1617593Y968373D2*
D3*
X4252843Y1841500D2*
X4268993D1*
X4252843Y1714500D2*
X4268993D1*
X4379843Y1587500D2*
Y1619380D1*
X4506843Y1587500D2*
Y1619380D1*
X4633843Y1587500D2*
Y1619380D1*
X4252843Y1460500D2*
D3*
Y1333500D2*
D3*
Y1968500D2*
X4268993D1*
X4768343Y440000D2*
D15*
Y399903D1*
X4838343Y440000D2*
D14*
X4819307Y420963D1*
X4800257D1*
X3888343Y820000D2*
Y861983D1*
X3958343Y820000D2*
Y861983D1*
X1347577Y666680D2*
X1569900D1*
X1617593Y714373D1*
X919477Y523820D2*
Y412707D1*
X1708343D1*
X5744490Y1730193D2*
Y1745650D1*
Y1460347D2*
X5770810D1*
X522273Y1443120D2*
D10*
X427273D1*
D14*
X377727D1*
X331753Y1397147D1*
Y1127243D1*
X649280Y809717D1*
Y619187D1*
X347617Y603310D2*
X490517D1*
X506393Y619187D1*
X649280D1*
X4999493Y2000380D2*
D16*
X5329780D1*
X5344950Y2015550D1*
D14*
Y2233180D1*
X5349593Y2237823D1*
X4999493Y2000380D2*
D17*
X4967217D1*
Y2276373D1*
X4926383Y2317207D1*
X2226077Y2111597D2*
D19*
Y2418233D1*
X3014593Y3206750D1*
X4554467D1*
X4926383Y2834833D1*
Y2317207D1*
X522273Y1393120D2*
D10*
X637437D1*
D13*
X665163Y1365393D1*
Y1317763D1*
X728670Y1254257D1*
Y1110980D1*
X982490Y857160D1*
Y841287D1*
X4069263Y961983D2*
Y1024953D1*
X3967093Y1127123D1*
X3935343D1*
X3379717Y1682750D1*
X2268467D1*
X2046217Y1905000D1*
Y2653307D1*
Y4046533D1*
X1235913Y4856837D1*
Y4976693D1*
X1232430Y4980177D1*
Y5012787D1*
X1331930Y5112287D1*
X1347717Y2460623D2*
D14*
Y2524123D1*
X1476900Y2653307D1*
X950943Y2302117D2*
Y2095720D1*
Y2302117D2*
X1161600D1*
X1173093Y2290623D1*
X1347717D1*
X1522343D1*
X823930Y5112287D2*
D16*
Y4032160D1*
X966717Y3889373D1*
Y2317890D1*
X950943Y2302117D1*
X5677547Y476300D2*
D14*
Y646300D1*
X5682190Y650943D1*
D17*
X5936271D1*
X6047354Y762027D1*
X950943Y1841720D2*
D14*
X1110063D1*
X1228343Y1960000D1*
X522273Y1843120D2*
D10*
X671463D1*
X798343Y1970000D1*
X949663D1*
X950943Y1968720D1*
X522273Y1793120D2*
X713737D1*
D13*
X792177Y1714680D1*
X950903D1*
X950943Y1714720D1*
X522273Y1593120D2*
D10*
X675587D1*
D13*
X728670Y1540037D1*
Y1349517D1*
X792177Y1286010D1*
Y1143120D1*
X871560Y1063737D1*
X1204970D1*
X1347860Y1206627D1*
X1490850D1*
X1490943Y1206720D1*
X950943Y1587720D2*
D14*
X1141123D1*
X522273Y1743120D2*
D10*
X668477D1*
D13*
X792177Y1619420D1*
Y1381270D1*
X839807Y1333640D1*
X950863D1*
X950943Y1333720D1*
Y1460720D2*
D14*
X1125250D1*
X1141343Y1444627D1*
X1490943Y1333720D2*
X1331623D1*
X1276280Y1389063D1*
X1347577Y836680D2*
X1331703D1*
Y841287D1*
X1152490D1*
X1109477Y523820D2*
Y634933D1*
X1157097Y682553D1*
Y836680D1*
X1152490Y841287D1*
X649280Y279187D2*
X417740D1*
X347617Y349310D1*
X649280Y279187D2*
X999843D1*
X1014477Y293820D1*
X3779263Y961983D2*
D13*
Y1187957D1*
X3356023Y1611197D1*
X2244770D1*
X1942913Y1913053D1*
Y2746373D1*
Y4072053D1*
X1180913Y4834053D1*
Y4953913D1*
X1177430Y4957397D1*
Y5012787D1*
X1077930Y5112287D1*
X1173093Y2460623D2*
D14*
Y2667000D1*
X1268343Y2762250D1*
X1427093D1*
X1950970Y2746373D2*
X1942913D1*
X5344950Y1745650D2*
D17*
X5000223D1*
X4999493Y1746380D1*
X5514950Y2015550D2*
D14*
X5725990D1*
X5519593Y2237823D2*
Y2020193D1*
X5514950Y2015550D1*
X4999493Y1873380D2*
D16*
X5459477D1*
D14*
X5506970Y1920873D1*
Y2007570D1*
X5514950Y2015550D1*
X4069263Y811983D2*
D13*
X4212757D1*
D20*
X4985450D1*
X5030717Y857250D1*
Y984353D1*
Y1207157D1*
X4999493Y1238380D1*
D17*
X5221090D1*
X5268843Y1190627D1*
X5344287D1*
X5344950Y1189963D1*
D16*
Y967690D1*
X5360827Y951813D1*
X4840727Y984353D2*
D17*
X5030717D1*
X4999493Y1365380D2*
X5339533D1*
X5344950Y1359963D1*
X5530827Y951813D2*
D16*
X5729033D1*
X5729820Y952600D1*
X4999493Y1492380D2*
D14*
X5443337D1*
X5538717Y1397000D1*
Y959703D1*
X5530827Y951813D1*
X4656863Y334903D2*
D15*
X4596863D1*
D14*
X4548810D1*
X4486797Y396917D1*
X4491440Y619190D2*
Y401560D1*
X4486797Y396917D1*
X4951863Y464900D2*
D15*
Y502400D1*
D14*
Y555683D1*
X4888357Y619190D1*
X4951863Y399903D2*
D13*
X5017873D1*
X5046593Y428623D1*
Y619123D1*
X5110097Y682627D1*
X5543873D1*
X5512190Y650943D1*
X4656863Y269903D2*
D15*
X4596863D1*
D14*
X4523193D1*
X4491440Y238150D1*
X4951863Y334903D2*
D13*
X5143877D1*
X5158260Y349287D1*
X5332903Y471657D2*
D14*
X5311873D1*
X5221217Y381000D1*
X5189973D1*
X5158260Y349287D1*
X5507547Y476300D2*
X5337547D1*
X5332903Y471657D1*
X4951863Y269903D2*
D15*
X4998940D1*
D13*
X5046593Y222250D1*
D14*
X5253497D1*
X5332903Y301657D1*
X5507547D2*
X5332903D1*
X4094523Y222273D2*
D20*
Y142443D1*
X4141717Y95250D1*
X5677547D1*
X5888578D1*
X6047354Y254027D1*
X5677547Y301657D2*
D17*
Y95250D1*
X4316797Y396917D2*
X4189387D1*
X4109970Y317500D1*
Y237720D1*
X4094523Y222273D1*
X4321440Y238150D2*
D13*
D3*
X4173470Y539750D2*
Y555623D1*
X4109967Y619127D1*
X4049943D1*
X4046893Y622177D1*
Y492177D2*
D14*
X3933707D1*
X3826893D1*
X4046893Y557177D2*
X3933707D1*
X3826893D1*
X3933707D2*
Y492177D1*
X3779263Y811983D2*
D13*
X3699577D1*
D14*
X3665467Y777873D1*
D20*
Y557177D1*
Y492177D1*
Y261330D1*
D14*
X3704523Y222273D1*
X3826893Y492177D2*
X3665467D1*
X3826893Y557177D2*
X3665467D1*
X4008933Y2769287D2*
D13*
Y2629287D1*
X4068933Y2569287D1*
Y2538178D1*
X4042012Y2511257D1*
X2821846D1*
X2548577Y2237988D1*
Y2184097D1*
X2476077Y2111597D1*
X4183933Y2769287D2*
Y2629287D1*
X4123933Y2569287D1*
Y2515396D1*
X4064794Y2456257D1*
X2844628D1*
X2603577Y2215206D1*
Y2184097D1*
X2676077Y2111597D1*
D51*
X1839843Y4000500D3*
X5237093Y587373D3*
X4475093Y984250D3*
X4804363Y367403D3*
X3924263Y886983D3*
X1204843Y1270000D3*
X4252843Y1587500D3*
X1476900Y2653307D3*
X2046217D3*
X1228343Y1960000D3*
X1141123Y1587720D3*
X1141343Y1444627D3*
X1276280Y1389063D3*
X1427093Y2762250D3*
X1950970Y2746373D3*
X4321440Y238150D3*
X4173470Y539750D3*
X299970Y4572000D3*
Y3619500D3*
Y2397127D3*
X157093Y1301750D3*
X172970Y1762127D3*
X2252593Y4222750D3*
X2268470Y4714873D3*
X1236593Y3984627D3*
X1093717Y4508500D3*
X1538217Y2984500D3*
X1696970Y3254373D3*
X411093Y127000D3*
X1617593Y968373D3*
X3871843Y1841500D3*
X3998843D3*
X4125843D3*
X4252843D3*
X4379843D3*
X4506843D3*
X4633843D3*
Y1714500D3*
X4506843D3*
X4379843D3*
X4252843D3*
X4125843D3*
X3998843D3*
X3871843D3*
Y1587500D3*
X3998843D3*
X4125843D3*
X4379843D3*
X4506843D3*
X4633843D3*
Y1460500D3*
X4506843D3*
X4379843D3*
X4252843D3*
X4125843D3*
X3998843D3*
X3871843D3*
X760263Y460327D3*
X3998843Y1333500D3*
X4125843D3*
X4252843D3*
X4379843D3*
X4506843D3*
X4633843D3*
Y1968500D3*
X4506843D3*
X4379843D3*
X4252843D3*
X4125843D3*
X3998843D3*
X3871843D3*
X4768343Y440000D3*
X4838343D3*
Y300000D3*
X4768343D3*
X3888343Y820000D3*
X3958343D3*
Y970000D3*
X3888343D3*
X5157177Y2222267D3*
X5284163Y2476240D3*
X5649250D3*
X5982590Y2238140D3*
X6141323Y2015913D3*
X6014337Y1793687D3*
X5744490Y1730193D3*
Y1460347D3*
X546617Y5500333D2*
D14*
X749086D1*
X898727D2*
X1003148D1*
X1152711D2*
X1511117D1*
X1660758D2*
X1765102D1*
X1914742D2*
X2019086D1*
X2168727D2*
X2527133D1*
X2676773D2*
X2781117D1*
X2930758D2*
X3289086D1*
X3438727D2*
X3543148D1*
X3692711D2*
X3797133D1*
X3946773D2*
X4051117D1*
X4200758D2*
X4559086D1*
X4708727D2*
X5067133D1*
X5216773D2*
X5321117D1*
X5470758D2*
X5575102D1*
X5724742D2*
X5921195D1*
X587555Y5460667D2*
X701273D1*
X1200602D2*
X1463305D1*
X2216539D2*
X2479320D1*
X2978570D2*
X3241273D1*
X4248570D2*
X4511273D1*
X4756539D2*
X5019320D1*
X5772555D2*
X5880336D1*
X617008Y5421000D2*
X678539D1*
X1223336D2*
X1440570D1*
X2239273D2*
X2456586D1*
X3001305D2*
X3218539D1*
X4271305D2*
X4488539D1*
X4779273D2*
X4996586D1*
X5795289D2*
X5850805D1*
X638492Y5381333D2*
X669086D1*
X1232789D2*
X1431117D1*
X2248805D2*
X2447055D1*
X3010758D2*
X3209086D1*
X4280758D2*
X4479086D1*
X4788805D2*
X4987055D1*
X5804742D2*
X5829329D1*
X1231539Y5341667D2*
X1432367D1*
X2247555D2*
X2448305D1*
X3009508D2*
X3210336D1*
X4279508D2*
X4480336D1*
X4787555D2*
X4988305D1*
X1219195Y5302000D2*
X1444633D1*
X2235211D2*
X2460648D1*
X2997242D2*
X3222602D1*
X4267242D2*
X4492602D1*
X4775211D2*
X5000648D1*
X667789Y5262333D2*
X709555D1*
X1192242D2*
X1306273D1*
X1357555D2*
X1471586D1*
X1700289D2*
X1725570D1*
X1954273D2*
X1979555D1*
X2208258D2*
X2322289D1*
X2373570D2*
X2487602D1*
X2970289D2*
X3084320D1*
X3135602D2*
X3249555D1*
X3732242D2*
X3757602D1*
X3986305D2*
X4011656D1*
X4240289D2*
X4354320D1*
X4405602D2*
X4519555D1*
X4748258D2*
X4862289D1*
X4913570D2*
X5027602D1*
X5510289D2*
X5535539D1*
X5764273D2*
X5800102D1*
X667555Y5222667D2*
X716039D1*
X1185836D2*
X1224008D1*
X1439820D2*
X1477992D1*
X1693883D2*
X1787367D1*
X1892477D2*
X1986039D1*
X2201852D2*
X2240023D1*
X2455836D2*
X2494008D1*
X2963883D2*
X3001977D1*
X3217867D2*
X3256039D1*
X3725836D2*
X3819398D1*
X3924430D2*
X4017992D1*
X4233883D2*
X4271977D1*
X4487867D2*
X4526039D1*
X4741852D2*
X4780023D1*
X4995836D2*
X5034008D1*
X5503883D2*
X5597367D1*
X5702477D2*
X5800336D1*
X662555Y5183000D2*
X685805D1*
X1724039D2*
X1955805D1*
X3755992D2*
X3987836D1*
X5534039D2*
X5805336D1*
X1738336Y5143333D2*
X1941508D1*
X3770289D2*
X3973539D1*
X5548336D2*
X5815414D1*
X636852Y5103667D2*
X668539D1*
X1741305D2*
X1938539D1*
X3773258D2*
X3970570D1*
X5551305D2*
X5831039D1*
X614742Y5064000D2*
X676195D1*
X1733648D2*
X1946195D1*
X3765602D2*
X3978227D1*
X5543648D2*
X5853148D1*
X6414742D2*
X6436039D1*
X584352Y5024333D2*
X696430D1*
X1713414D2*
X1966430D1*
X3745445D2*
X3998461D1*
X5523414D2*
X5883461D1*
X6384352D2*
X6436039D1*
X64039Y4984667D2*
X125648D1*
X542164D2*
X728383D1*
X919508D2*
X992133D1*
X1417789D2*
X1500102D1*
X1671773D2*
X2008070D1*
X2179742D2*
X2262133D1*
X2433727D2*
X2516117D1*
X2687789D2*
X2770102D1*
X2941773D2*
X3024086D1*
X3195758D2*
X3278070D1*
X3449742D2*
X3532133D1*
X3703727D2*
X4040102D1*
X4211773D2*
X4294086D1*
X4465758D2*
X4548070D1*
X4719742D2*
X4802133D1*
X4973727D2*
X5056117D1*
X5227789D2*
X5310102D1*
X5481773D2*
X5925648D1*
X6342164D2*
X6436039D1*
X64039Y4945000D2*
X190102D1*
X477711D2*
X728383D1*
X919508D2*
X1097836D1*
X1316461D2*
X5990102D1*
X6277711D2*
X6436039D1*
X64039Y4905333D2*
X728383D1*
X919508D2*
X1100336D1*
X1316461D2*
X6436039D1*
X64039Y4865667D2*
X728383D1*
X919508D2*
X1100336D1*
X1339352D2*
X6436039D1*
X64039Y4826000D2*
X728383D1*
X919508D2*
X1100805D1*
X1379039D2*
X6436039D1*
X64039Y4786333D2*
X728383D1*
X919508D2*
X1117055D1*
X1418727D2*
X6436039D1*
X64039Y4746667D2*
X728383D1*
X919508D2*
X1156039D1*
X1458336D2*
X6436039D1*
X64039Y4707000D2*
X728383D1*
X919508D2*
X1195648D1*
X1498023D2*
X6436039D1*
X64039Y4667333D2*
X728383D1*
X919508D2*
X1235336D1*
X1537711D2*
X6436039D1*
X64039Y4627667D2*
X728383D1*
X919508D2*
X1275023D1*
X1577398D2*
X6436039D1*
X64039Y4588000D2*
X728383D1*
X919508D2*
X1314711D1*
X1617008D2*
X6436039D1*
X64039Y4548333D2*
X728383D1*
X919508D2*
X1354320D1*
X1656695D2*
X6436039D1*
X64039Y4508667D2*
X728383D1*
X919508D2*
X1394008D1*
X1696383D2*
X6436039D1*
X64039Y4469000D2*
X728383D1*
X919508D2*
X1433695D1*
X1736070D2*
X6436039D1*
X64039Y4429333D2*
X728383D1*
X919508D2*
X1473383D1*
X1775680D2*
X6436039D1*
X64039Y4389667D2*
X728383D1*
X919508D2*
X1512992D1*
X1815367D2*
X6436039D1*
X64039Y4350000D2*
X728383D1*
X919508D2*
X1552680D1*
X1855055D2*
X6436039D1*
X64039Y4310333D2*
X728383D1*
X919508D2*
X1592367D1*
X1894664D2*
X6436039D1*
X64039Y4270667D2*
X728383D1*
X919508D2*
X1632055D1*
X1934352D2*
X6436039D1*
X64039Y4231000D2*
X728383D1*
X919508D2*
X1671664D1*
X1974039D2*
X6436039D1*
X64039Y4191333D2*
X728383D1*
X919508D2*
X1711352D1*
X2013727D2*
X6436039D1*
X64039Y4151667D2*
X728383D1*
X919508D2*
X1751039D1*
X2053336D2*
X6436039D1*
X64039Y4112000D2*
X728383D1*
X919508D2*
X1790648D1*
X2093023D2*
X6436039D1*
X64039Y4072333D2*
X728383D1*
X919508D2*
X1757055D1*
X2122320D2*
X6436039D1*
X64039Y4032667D2*
X728383D1*
X956930D2*
X1734242D1*
X2126773D2*
X6436039D1*
X64039Y3993000D2*
X737133D1*
X996617D2*
X1729477D1*
X2126773D2*
X6436039D1*
X64039Y3953333D2*
X769242D1*
X1036227D2*
X1740258D1*
X2126773D2*
X6436039D1*
X64039Y3913667D2*
X808930D1*
X1059039D2*
X1759242D1*
X2126773D2*
X6436039D1*
X64039Y3874000D2*
X848617D1*
X1062320D2*
X1759242D1*
X2126773D2*
X6436039D1*
X64039Y3834333D2*
X871117D1*
X1062320D2*
X1759242D1*
X2126773D2*
X6436039D1*
X64039Y3794667D2*
X871117D1*
X1062320D2*
X1759242D1*
X2126773D2*
X6436039D1*
X64039Y3755000D2*
X871117D1*
X1062320D2*
X1759242D1*
X2126773D2*
X6436039D1*
X64039Y3715333D2*
X871117D1*
X1062320D2*
X1759242D1*
X2126773D2*
X6436039D1*
X64039Y3675667D2*
X871117D1*
X1062320D2*
X1759242D1*
X2126773D2*
X6436039D1*
X64039Y3636000D2*
X871117D1*
X1062320D2*
X1759242D1*
X2126773D2*
X6436039D1*
X64039Y3596333D2*
X871117D1*
X1062320D2*
X1759242D1*
X2126773D2*
X6436039D1*
X64039Y3556667D2*
X871117D1*
X1062320D2*
X1759242D1*
X2126773D2*
X6436039D1*
X64039Y3517000D2*
X871117D1*
X1062320D2*
X1759242D1*
X2126773D2*
X6436039D1*
X64039Y3477333D2*
X871117D1*
X1062320D2*
X1759242D1*
X2126773D2*
X6436039D1*
X64039Y3437667D2*
X871117D1*
X1062320D2*
X1759242D1*
X2126773D2*
X6436039D1*
X64039Y3398000D2*
X871117D1*
X1062320D2*
X1759242D1*
X2126773D2*
X6436039D1*
X64039Y3358333D2*
X871117D1*
X1062320D2*
X1759242D1*
X2126773D2*
X6436039D1*
X64039Y3318667D2*
X871117D1*
X1062320D2*
X1759242D1*
X2126773D2*
X2932367D1*
X4636695D2*
X6436039D1*
X64039Y3279000D2*
X871117D1*
X1062320D2*
X1759242D1*
X2126773D2*
X2889711D1*
X4679352D2*
X6436039D1*
X64039Y3239333D2*
X191742D1*
X476070D2*
X871117D1*
X1062320D2*
X1759242D1*
X2126773D2*
X2850023D1*
X4719039D2*
X5991742D1*
X6276070D2*
X6436039D1*
X64039Y3199667D2*
X126664D1*
X541227D2*
X871117D1*
X1062320D2*
X1759242D1*
X2126773D2*
X2810414D1*
X4758648D2*
X5926664D1*
X6341227D2*
X6436039D1*
X64039Y3160000D2*
X84215D1*
X583727D2*
X871117D1*
X1062320D2*
X1759242D1*
X2126773D2*
X2770727D1*
X4798336D2*
X5884164D1*
X6383727D2*
X6436039D1*
X614195Y3120333D2*
X871117D1*
X1062320D2*
X1759242D1*
X2126773D2*
X2731039D1*
X4838023D2*
X5853617D1*
X6414195D2*
X6436039D1*
X636461Y3080667D2*
X871117D1*
X1062320D2*
X1759242D1*
X2126773D2*
X2691352D1*
X4877711D2*
X5831352D1*
X652242Y3041000D2*
X871117D1*
X1062320D2*
X1759242D1*
X2126773D2*
X2651742D1*
X3045992D2*
X4523070D1*
X4917320D2*
X5815648D1*
X662398Y3001333D2*
X871117D1*
X1062320D2*
X1759242D1*
X2126773D2*
X2612055D1*
X3006305D2*
X4562758D1*
X4957008D2*
X5805492D1*
X667477Y2961667D2*
X871117D1*
X1062320D2*
X1759242D1*
X2126773D2*
X2572367D1*
X2966617D2*
X4602445D1*
X4996695D2*
X5800336D1*
X667789Y2922000D2*
X871117D1*
X1062320D2*
X1759242D1*
X2126773D2*
X2532680D1*
X2927008D2*
X3914867D1*
X4278023D2*
X4642055D1*
X5035523D2*
X5800023D1*
X663336Y2882333D2*
X871117D1*
X1062320D2*
X1759242D1*
X2126773D2*
X2493070D1*
X2887320D2*
X3883773D1*
X4309117D2*
X4681742D1*
X5058414D2*
X5804555D1*
X653805Y2842667D2*
X871117D1*
X1062320D2*
X1250727D1*
X1501070D2*
X1759242D1*
X2126773D2*
X2453383D1*
X2847633D2*
X3870336D1*
X4322555D2*
X4721430D1*
X5066695D2*
X5814008D1*
X638805Y2803000D2*
X871117D1*
X1062320D2*
X1189711D1*
X1529586D2*
X1759242D1*
X2126773D2*
X2413695D1*
X2807945D2*
X3868305D1*
X4324508D2*
X4761117D1*
X5066930D2*
X5829008D1*
X617477Y2763333D2*
X871117D1*
X1062320D2*
X1150102D1*
X1537711D2*
X1759242D1*
X2126773D2*
X2374008D1*
X2768336D2*
X3868305D1*
X4324508D2*
X4785805D1*
X5066930D2*
X5850336D1*
X588180Y2723667D2*
X871117D1*
X1062320D2*
X1110414D1*
X1560992D2*
X1759242D1*
X2130289D2*
X2334398D1*
X2728648D2*
X3868305D1*
X4324508D2*
X4785805D1*
X5066930D2*
X5879711D1*
X6388180D2*
X6436039D1*
X64039Y2684000D2*
X120258D1*
X547555D2*
X871117D1*
X1062320D2*
X1089320D1*
X1583023D2*
X1759242D1*
X2152320D2*
X2294711D1*
X2688961D2*
X3872992D1*
X4319898D2*
X4785805D1*
X5066930D2*
X5920258D1*
X6347555D2*
X6436039D1*
X64039Y2644333D2*
X181195D1*
X486695D2*
X871117D1*
X1062320D2*
X1087523D1*
X1587086D2*
X1759242D1*
X2156461D2*
X2255023D1*
X2649273D2*
X3890727D1*
X4302164D2*
X4785805D1*
X5066930D2*
X5981195D1*
X6286695D2*
X6436039D1*
X64039Y2604667D2*
X871117D1*
X1062320D2*
X1087523D1*
X1575758D2*
X1759242D1*
X2145055D2*
X2215414D1*
X2609664D2*
X3930648D1*
X4262242D2*
X4785805D1*
X5066930D2*
X6436039D1*
X64039Y2565000D2*
X871117D1*
X1637945D2*
X1759242D1*
X2126773D2*
X2175727D1*
X2569977D2*
X2763305D1*
X4231930D2*
X4785805D1*
X5066930D2*
X6436039D1*
X64039Y2525333D2*
X871117D1*
X2530289D2*
X2723617D1*
X4204508D2*
X4785805D1*
X5066930D2*
X6436039D1*
X64039Y2485667D2*
X871117D1*
X2490680D2*
X2684008D1*
X4198492D2*
X4500805D1*
X5072008D2*
X6436039D1*
X64039Y2446000D2*
X871117D1*
X2450992D2*
X2644320D1*
X4166852D2*
X4500805D1*
X5072008D2*
X6436039D1*
X64039Y2406333D2*
X660336D1*
X2411305D2*
X2604633D1*
X4127164D2*
X4500805D1*
X5072008D2*
X6436039D1*
X64039Y2366667D2*
X660336D1*
X1637945D2*
X1759242D1*
X2371617D2*
X2564945D1*
X2867320D2*
X4500805D1*
X5072008D2*
X6436039D1*
X64039Y2327000D2*
X660336D1*
X1637945D2*
X1759242D1*
X2366617D2*
X2525336D1*
X2827633D2*
X4500805D1*
X5072008D2*
X5229008D1*
X5640211D2*
X6436039D1*
X64039Y2287333D2*
X660336D1*
X1637945D2*
X1759242D1*
X2366617D2*
X2486039D1*
X2788023D2*
X4500805D1*
X5072164D2*
X5229008D1*
X5640211D2*
X6436039D1*
X64039Y2247667D2*
X660336D1*
X1637945D2*
X1759242D1*
X2371695D2*
X2432914D1*
X2748336D2*
X4500805D1*
X5072789D2*
X5229008D1*
X5640211D2*
X6436039D1*
X64039Y2208000D2*
X660336D1*
X1637945D2*
X1759242D1*
X2783805D2*
X4500805D1*
X5072789D2*
X5229008D1*
X5640211D2*
X6436039D1*
X362867Y2168333D2*
X785336D1*
X1656539D2*
X1759242D1*
X2809820D2*
X4500805D1*
X5072789D2*
X5229008D1*
X5640211D2*
X6436039D1*
X362867Y2128667D2*
X785336D1*
X1656539D2*
X1759242D1*
X2820680D2*
X4500805D1*
X5072789D2*
X5229008D1*
X5640211D2*
X6436039D1*
X362867Y2089000D2*
X785336D1*
X1656539D2*
X1759242D1*
X2819898D2*
X4780883D1*
X6016617D2*
X6436039D1*
X362867Y2049333D2*
X785336D1*
X1656539D2*
X1759242D1*
X2807242D2*
X4780883D1*
X6016617D2*
X6436039D1*
X362867Y2009667D2*
X729242D1*
X1656539D2*
X1759242D1*
X2778336D2*
X4780883D1*
X6016617D2*
X6436039D1*
X362867Y1970000D2*
X689633D1*
X1656539D2*
X1759242D1*
X2371695D2*
X4780883D1*
X6016617D2*
X6436039D1*
X362867Y1930333D2*
X649945D1*
X1656539D2*
X1759242D1*
X2133180D2*
X4780883D1*
X6016617D2*
X6436039D1*
X1656539Y1890667D2*
X1760648D1*
X2172867D2*
X4780883D1*
X5586773D2*
X6436039D1*
X64039Y1851000D2*
X381664D1*
X1656539D2*
X1781586D1*
X2212477D2*
X4780883D1*
X5635523D2*
X6436039D1*
X64039Y1811333D2*
X381664D1*
X1656539D2*
X1821195D1*
X2252164D2*
X4780883D1*
X5635523D2*
X6436039D1*
X64039Y1771667D2*
X381664D1*
X1656539D2*
X1860883D1*
X2291852D2*
X4780883D1*
X5635523D2*
X6436039D1*
X64039Y1732000D2*
X381664D1*
X1656539D2*
X1900570D1*
X3442711D2*
X4780883D1*
X5635523D2*
X6436039D1*
X64039Y1692333D2*
X381664D1*
X1656539D2*
X1940258D1*
X3482398D2*
X4780883D1*
X5635523D2*
X6436039D1*
X64039Y1652667D2*
X381664D1*
X1656539D2*
X1979867D1*
X3522086D2*
X4780883D1*
X5635523D2*
X6436039D1*
X64039Y1613000D2*
X381664D1*
X1656539D2*
X2019555D1*
X3561773D2*
X4780883D1*
X5218102D2*
X6436039D1*
X64039Y1573333D2*
X381664D1*
X1656539D2*
X2059242D1*
X3601383D2*
X4780883D1*
X5457320D2*
X6436039D1*
X64039Y1533667D2*
X381664D1*
X1656539D2*
X2098930D1*
X3641070D2*
X4780883D1*
X5521383D2*
X6436039D1*
X64039Y1494000D2*
X309242D1*
X1656539D2*
X2138539D1*
X3680758D2*
X4780883D1*
X5561070D2*
X6436039D1*
X64039Y1454333D2*
X269555D1*
X1656539D2*
X3305336D1*
X3720445D2*
X4780883D1*
X5600758D2*
X6436039D1*
X64039Y1414667D2*
X248070D1*
X1656539D2*
X3345023D1*
X3760055D2*
X4780883D1*
X5622320D2*
X6436039D1*
X64039Y1375000D2*
X246195D1*
X1656539D2*
X3384711D1*
X3799742D2*
X4780883D1*
X5624273D2*
X6436039D1*
X64039Y1335333D2*
X246195D1*
X1116539D2*
X1180180D1*
X1656539D2*
X3424320D1*
X3839430D2*
X4780883D1*
X5624273D2*
X6436039D1*
X64039Y1295667D2*
X246195D1*
X1116539D2*
X1220883D1*
X1656539D2*
X3464008D1*
X3879117D2*
X4780883D1*
X5624273D2*
X6436039D1*
X64039Y1256000D2*
X246195D1*
X1116539D2*
X1284945D1*
X1656539D2*
X3503695D1*
X3918727D2*
X4780883D1*
X5624273D2*
X6436039D1*
X64039Y1216333D2*
X246195D1*
X1116539D2*
X1245258D1*
X1656539D2*
X3543383D1*
X3958414D2*
X4780883D1*
X5845445D2*
X6436039D1*
X64039Y1176667D2*
X246195D1*
X1116539D2*
X1205648D1*
X1656539D2*
X3582992D1*
X4029820D2*
X4780883D1*
X5845445D2*
X6436039D1*
X64039Y1137000D2*
X246195D1*
X1656539D2*
X1714320D1*
X3452320D2*
X3584867D1*
X4069508D2*
X4780883D1*
X5845445D2*
X6436039D1*
X1350836Y1097333D2*
X1714320D1*
X3452320D2*
X3584867D1*
X4109195D2*
X4520102D1*
X5146305D2*
X5224711D1*
X5845445D2*
X6436039D1*
X520680Y1057667D2*
X669711D1*
X1311148D2*
X1714320D1*
X3452320D2*
X3584867D1*
X4142477D2*
X4520102D1*
X5146305D2*
X5240258D1*
X5845445D2*
X6436039D1*
X560367Y1018000D2*
X709398D1*
X1271539D2*
X1714320D1*
X3452320D2*
X3584867D1*
X4153023D2*
X4520102D1*
X5146305D2*
X5240258D1*
X5845445D2*
X6436039D1*
X600055Y978333D2*
X749008D1*
X973570D2*
X1714320D1*
X3452320D2*
X3584867D1*
X4175602D2*
X4520102D1*
X5146305D2*
X5240258D1*
X5845445D2*
X6436039D1*
X362867Y938667D2*
X400961D1*
X639664D2*
X788695D1*
X1463180D2*
X1714320D1*
X3452320D2*
X3586195D1*
X4173727D2*
X4520102D1*
X5146305D2*
X5240258D1*
X5845445D2*
X5926820D1*
X6167867D2*
X6436039D1*
X362867Y899000D2*
X440648D1*
X679352D2*
X828383D1*
X1463180D2*
X1714320D1*
X3452320D2*
X3606664D1*
X5146305D2*
X5240258D1*
X5845445D2*
X5882055D1*
X6212633D2*
X6436039D1*
X362867Y859333D2*
X480336D1*
X718023D2*
X861898D1*
X1463180D2*
X1714320D1*
X3452320D2*
X3585258D1*
X5146305D2*
X5240258D1*
X6239273D2*
X6436039D1*
X362867Y819667D2*
X519945D1*
X734273D2*
X861898D1*
X1463180D2*
X1714320D1*
X3452320D2*
X3557992D1*
X5139742D2*
X5839789D1*
X6254977D2*
X6436039D1*
X64039Y780000D2*
X559633D1*
X734820D2*
X861898D1*
X1463180D2*
X1714320D1*
X3452320D2*
X3549945D1*
X5115211D2*
X5832523D1*
X6262164D2*
X6436039D1*
X64039Y740333D2*
X197055D1*
X498180D2*
X563695D1*
X734820D2*
X861898D1*
X1463180D2*
X1714320D1*
X3452320D2*
X3549867D1*
X6261852D2*
X6436039D1*
X64039Y700667D2*
X197055D1*
X794898D2*
X1055883D1*
X1463180D2*
X1714320D1*
X3452320D2*
X3549867D1*
X4157477D2*
X4200805D1*
X6253883D2*
X6436039D1*
X64039Y661000D2*
X197055D1*
X794898D2*
X1028148D1*
X1463180D2*
X1714320D1*
X3452320D2*
X3549867D1*
X4180367D2*
X4200805D1*
X6237242D2*
X6436039D1*
X64039Y621333D2*
X197055D1*
X794898D2*
X821352D1*
X1463180D2*
X1714320D1*
X3452320D2*
X3549867D1*
X6209430D2*
X6436039D1*
X64039Y581667D2*
X197055D1*
X794898D2*
X821352D1*
X1207555D2*
X1231943D1*
X1463180D2*
X1714320D1*
X3452320D2*
X3549867D1*
X6162008D2*
X6436039D1*
X64039Y542000D2*
X197055D1*
X794898D2*
X821352D1*
X1207555D2*
X1714320D1*
X3452320D2*
X3549867D1*
X5802789D2*
X6436039D1*
X64039Y502333D2*
X197055D1*
X498180D2*
X821352D1*
X1207555D2*
X1714320D1*
X3452320D2*
X3549867D1*
X5798180D2*
X6436039D1*
X64039Y462667D2*
X197055D1*
X498180D2*
X821352D1*
X1207555D2*
X1714320D1*
X3452320D2*
X3549867D1*
X5798180D2*
X6008070D1*
X6086617D2*
X6436039D1*
X64039Y423000D2*
X216898D1*
X478336D2*
X821352D1*
X1207555D2*
X1714320D1*
X3452320D2*
X3543930D1*
X5798180D2*
X5915961D1*
X6178727D2*
X6436039D1*
X64039Y383333D2*
X201039D1*
X494195D2*
X916352D1*
X1112555D2*
X1714320D1*
X3452320D2*
X3543930D1*
X5798180D2*
X5875883D1*
X6218883D2*
X6436039D1*
X64039Y343667D2*
X197133D1*
X1112555D2*
X1714320D1*
X3452320D2*
X3543930D1*
X5798180D2*
X5851664D1*
X6243023D2*
X6436039D1*
X64000Y304000D2*
X204164D1*
X1112555D2*
X1714320D1*
X3452320D2*
X3543930D1*
X5798180D2*
X5837758D1*
X6256930D2*
X6436039D1*
X69195Y264333D2*
X224164D1*
X1112555D2*
X1714320D1*
X3452320D2*
X3543930D1*
X5798180D2*
X5831977D1*
X6262711D2*
X6430805D1*
X78180Y224667D2*
X266430D1*
X1112555D2*
X1714320D1*
X3452320D2*
X3543930D1*
X5798180D2*
X5833773D1*
X6260914D2*
X6421820D1*
X94664Y185000D2*
X503695D1*
X794898D2*
X916352D1*
X1112555D2*
X1714320D1*
X3452320D2*
X3543930D1*
X6251383D2*
X6405336D1*
X123414Y145333D2*
X1714086D1*
X3453492D2*
X3543930D1*
X6232867D2*
X6376586D1*
X167242Y105667D2*
X1707211D1*
X3465289D2*
X3543930D1*
X6202242D2*
X6332758D1*
X262320Y66000D2*
X1664945D1*
X3511773D2*
X3543930D1*
X6148414D2*
X6237680D1*
X6258302Y237425D2*
X6256349Y220925D1*
X6253108Y204630D1*
X6248598Y188639D1*
X6242847Y173051D1*
X6235891Y157962D1*
X6227773Y143466D1*
X6218542Y129651D1*
X6208256Y116603D1*
X6196978Y104403D1*
X6184777Y93125D1*
X6171730Y82839D1*
X6157915Y73608D1*
X6143419Y65490D1*
X6132400Y60000D1*
X6196309D1*
X6262130Y68697D1*
X6319843Y92643D1*
X6369427Y130726D1*
X6407466Y180344D1*
X6431366Y238116D1*
X6440041Y304220D1*
X6440001Y2815041D1*
X6426266Y2785470D1*
X6416423Y2768063D1*
X6405545Y2751284D1*
X6393672Y2735193D1*
X6380847Y2719851D1*
X6367117Y2705312D1*
X6352532Y2691631D1*
X6337147Y2678858D1*
X6321016Y2667039D1*
X6304200Y2656218D1*
X6286760Y2646434D1*
X6268761Y2637723D1*
X6250266Y2630117D1*
X6231346Y2623644D1*
X6212069Y2618328D1*
X6192505Y2614188D1*
X6172727Y2611240D1*
X6152806Y2609493D1*
X6132816Y2608955D1*
X6112831Y2609628D1*
X6092922Y2611509D1*
X6073164Y2614590D1*
X6053629Y2618862D1*
X6034388Y2624308D1*
X6015512Y2630908D1*
X5997069Y2638639D1*
X5979128Y2647471D1*
X5961755Y2657372D1*
X5945012Y2668307D1*
X5928962Y2680234D1*
X5913663Y2693111D1*
X5899171Y2706890D1*
X5885539Y2721520D1*
X5872818Y2736949D1*
X5861053Y2753119D1*
X5850289Y2769972D1*
X5840563Y2787444D1*
X5831913Y2805474D1*
X5824370Y2823993D1*
X5817961Y2842935D1*
X5812710Y2862230D1*
X5808636Y2881808D1*
X5805754Y2901596D1*
X5804075Y2921522D1*
X5803604Y2941514D1*
X5804344Y2961497D1*
X5806292Y2981399D1*
X5809440Y3001147D1*
X5813778Y3020667D1*
X5819289Y3039890D1*
X5825953Y3058744D1*
X5833745Y3077160D1*
X5842637Y3095071D1*
X5852597Y3112411D1*
X5863588Y3129117D1*
X5875570Y3145127D1*
X5888498Y3160382D1*
X5902326Y3174828D1*
X5917002Y3188410D1*
X5932474Y3201080D1*
X5948684Y3212790D1*
X5965572Y3223497D1*
X5983077Y3233164D1*
X6001136Y3241753D1*
X6019681Y3249234D1*
X6038644Y3255579D1*
X6057957Y3260765D1*
X6077548Y3264773D1*
X6097346Y3267588D1*
X6117278Y3269200D1*
X6137271Y3269603D1*
X6157251Y3268796D1*
X6177147Y3266781D1*
X6196883Y3263566D1*
X6216390Y3259162D1*
X6235593Y3253587D1*
X6254425Y3246860D1*
X6272815Y3239005D1*
X6290696Y3230052D1*
X6308002Y3220034D1*
X6324670Y3208987D1*
X6340640Y3196951D1*
X6355852Y3183972D1*
X6370251Y3170095D1*
X6383783Y3155373D1*
X6396401Y3139859D1*
X6408056Y3123610D1*
X6418707Y3106686D1*
X6428314Y3089148D1*
X6440059Y3063009D1*
X6440000Y5120041D1*
X6426266Y5090470D1*
X6416423Y5073063D1*
X6405545Y5056284D1*
X6393672Y5040193D1*
X6380847Y5024851D1*
X6367117Y5010312D1*
X6352532Y4996631D1*
X6337147Y4983858D1*
X6321016Y4972039D1*
X6304200Y4961218D1*
X6286760Y4951434D1*
X6268761Y4942723D1*
X6250266Y4935117D1*
X6231346Y4928644D1*
X6212069Y4923328D1*
X6192505Y4919188D1*
X6172727Y4916240D1*
X6152806Y4914493D1*
X6132816Y4913955D1*
X6112831Y4914628D1*
X6092922Y4916509D1*
X6073164Y4919590D1*
X6053629Y4923862D1*
X6034388Y4929308D1*
X6015512Y4935908D1*
X5997069Y4943639D1*
X5979128Y4952471D1*
X5961755Y4962372D1*
X5945012Y4973307D1*
X5928962Y4985234D1*
X5913663Y4998111D1*
X5899171Y5011890D1*
X5885539Y5026520D1*
X5872818Y5041949D1*
X5861053Y5058119D1*
X5850289Y5074972D1*
X5840563Y5092444D1*
X5831913Y5110474D1*
X5824370Y5128993D1*
X5817961Y5147935D1*
X5812710Y5167230D1*
X5808636Y5186808D1*
X5805754Y5206596D1*
X5804075Y5226522D1*
X5803604Y5246514D1*
X5804344Y5266497D1*
X5806292Y5286399D1*
X5809440Y5306147D1*
X5813778Y5325667D1*
X5819289Y5344890D1*
X5825953Y5363744D1*
X5833745Y5382160D1*
X5842637Y5400071D1*
X5852597Y5417411D1*
X5863588Y5434117D1*
X5875570Y5450127D1*
X5888498Y5465382D1*
X5902326Y5479828D1*
X5917002Y5493410D1*
X5932474Y5506080D1*
X5948684Y5517790D1*
X5965572Y5528497D1*
X5986957Y5540009D1*
X481210Y5540000D1*
X508002Y5525034D1*
X524670Y5513987D1*
X540640Y5501951D1*
X555852Y5488972D1*
X570251Y5475095D1*
X583783Y5460373D1*
X596401Y5444859D1*
X608056Y5428610D1*
X618707Y5411686D1*
X628314Y5394148D1*
X636842Y5376060D1*
X644260Y5357490D1*
X650542Y5338506D1*
X655662Y5319175D1*
X659604Y5299571D1*
X662353Y5279764D1*
X664263Y5244287D1*
X663658Y5224299D1*
X661844Y5204384D1*
X658829Y5184616D1*
X654623Y5165066D1*
X649242Y5145807D1*
X642706Y5126909D1*
X635038Y5108440D1*
X626266Y5090470D1*
X616423Y5073063D1*
X605545Y5056284D1*
X593672Y5040193D1*
X580847Y5024851D1*
X567117Y5010312D1*
X552532Y4996631D1*
X537147Y4983858D1*
X521016Y4972039D1*
X504200Y4961218D1*
X486760Y4951434D1*
X468761Y4942723D1*
X450266Y4935117D1*
X431346Y4928644D1*
X412069Y4923328D1*
X392505Y4919188D1*
X372727Y4916240D1*
X352806Y4914493D1*
X332816Y4913955D1*
X312831Y4914628D1*
X292922Y4916509D1*
X273164Y4919590D1*
X253629Y4923862D1*
X234388Y4929308D1*
X215512Y4935908D1*
X197069Y4943639D1*
X179128Y4952471D1*
X161755Y4962372D1*
X145012Y4973307D1*
X128962Y4985234D1*
X113663Y4998111D1*
X99171Y5011890D1*
X85539Y5026520D1*
X72818Y5041949D1*
X60002Y5059765D1*
Y3123860D1*
X75570Y3145127D1*
X88498Y3160382D1*
X102326Y3174828D1*
X117002Y3188410D1*
X132474Y3201080D1*
X148684Y3212790D1*
X165572Y3223497D1*
X183077Y3233164D1*
X201136Y3241753D1*
X219681Y3249234D1*
X238644Y3255579D1*
X257957Y3260765D1*
X277548Y3264773D1*
X297346Y3267588D1*
X317278Y3269200D1*
X337271Y3269603D1*
X357251Y3268796D1*
X377147Y3266781D1*
X396883Y3263566D1*
X416390Y3259162D1*
X435593Y3253587D1*
X454425Y3246860D1*
X472815Y3239005D1*
X490696Y3230052D1*
X508002Y3220034D1*
X524670Y3208987D1*
X540640Y3196951D1*
X555852Y3183972D1*
X570251Y3170095D1*
X583783Y3155373D1*
X596401Y3139859D1*
X608056Y3123610D1*
X618707Y3106686D1*
X628314Y3089148D1*
X636842Y3071060D1*
X644260Y3052490D1*
X650542Y3033506D1*
X655662Y3014175D1*
X659604Y2994571D1*
X662353Y2974764D1*
X664263Y2939287D1*
X663658Y2919299D1*
X661844Y2899384D1*
X658829Y2879616D1*
X654623Y2860066D1*
X649242Y2840807D1*
X642706Y2821909D1*
X635038Y2803440D1*
X626266Y2785470D1*
X616423Y2768063D1*
X605545Y2751284D1*
X593672Y2735193D1*
X580847Y2719851D1*
X567117Y2705312D1*
X552532Y2691631D1*
X537147Y2678858D1*
X521016Y2667039D1*
X504200Y2656218D1*
X486760Y2646434D1*
X468761Y2637723D1*
X450266Y2630117D1*
X431346Y2623644D1*
X412069Y2618328D1*
X392505Y2614188D1*
X372727Y2611240D1*
X352806Y2609493D1*
X332816Y2608955D1*
X312831Y2609628D1*
X292922Y2611509D1*
X273164Y2614590D1*
X253629Y2618862D1*
X234388Y2624308D1*
X215512Y2630908D1*
X197069Y2638639D1*
X179128Y2647471D1*
X161755Y2657372D1*
X145012Y2668307D1*
X128962Y2680234D1*
X113663Y2693111D1*
X99171Y2706890D1*
X85539Y2721520D1*
X72818Y2736949D1*
X60002Y2754765D1*
X60001Y2184641D1*
X358874Y2184720D1*
Y1881520D1*
X59983D1*
X60001Y1109641D1*
X252095Y1109720D1*
X250405Y1120841D1*
X250153Y1227243D1*
X250405Y1403549D1*
X252408Y1416196D1*
X256364Y1428374D1*
X262178Y1439783D1*
X269704Y1450142D1*
X316480Y1497273D1*
X324732Y1505169D1*
X335091Y1512696D1*
X346500Y1518509D1*
X358677Y1522466D1*
X371324Y1524469D1*
X385617Y1524720D1*
X385752Y1867220D1*
X385674Y1917220D1*
X640752D1*
X750219Y2026346D1*
X759626Y2033181D1*
X769986Y2038460D1*
X781045Y2042053D1*
X787767Y2043308D1*
X789344Y2044120D1*
Y2187320D1*
X869422D1*
X867544Y2190516D1*
X664344D1*
Y2413716D1*
X875203D1*
X875117Y3851406D1*
X754277Y3972670D1*
X745828Y3984299D1*
X739302Y3997106D1*
X734861Y4010776D1*
X732612Y4024973D1*
X732330Y4072160D1*
Y4991457D1*
X716733Y5005089D1*
X701283Y5023178D1*
X688853Y5043462D1*
X679750Y5065440D1*
X674196Y5088571D1*
X672330Y5112287D1*
X674196Y5136002D1*
X679750Y5159134D1*
X688853Y5181112D1*
X701283Y5201395D1*
X716733Y5219484D1*
X734822Y5234934D1*
X741278Y5239248D1*
X725474Y5251009D1*
X708652Y5267830D1*
X694670Y5287076D1*
X683870Y5308272D1*
X676519Y5330896D1*
X672797Y5354392D1*
Y5378181D1*
X676519Y5401677D1*
X683870Y5424301D1*
X694670Y5445497D1*
X708652Y5464743D1*
X725474Y5481564D1*
X744719Y5495547D1*
X765915Y5506347D1*
X788540Y5513698D1*
X812036Y5517419D1*
X835824D1*
X859320Y5513698D1*
X881945Y5506347D1*
X903141Y5495547D1*
X922386Y5481564D1*
X939208Y5464743D1*
X950891Y5448938D1*
X962652Y5464743D1*
X979474Y5481564D1*
X998719Y5495547D1*
X1019915Y5506347D1*
X1042540Y5513698D1*
X1066036Y5517419D1*
X1089824D1*
X1113320Y5513698D1*
X1135945Y5506347D1*
X1157141Y5495547D1*
X1176386Y5481564D1*
X1193208Y5464743D1*
X1207190Y5445497D1*
X1217990Y5424301D1*
X1225341Y5401677D1*
X1229063Y5378181D1*
Y5354392D1*
X1225341Y5330896D1*
X1217990Y5308272D1*
X1207190Y5287076D1*
X1193208Y5267830D1*
X1176386Y5251009D1*
X1160582Y5239326D1*
X1176386Y5227564D1*
X1193208Y5210743D1*
X1204891Y5194938D1*
X1216652Y5210743D1*
X1233474Y5227564D1*
X1252719Y5241547D1*
X1273915Y5252347D1*
X1296540Y5259698D1*
X1320036Y5263419D1*
X1343824D1*
X1367320Y5259698D1*
X1389945Y5252347D1*
X1411141Y5241547D1*
X1430386Y5227564D1*
X1447208Y5210743D1*
X1458891Y5194938D1*
X1470652Y5210743D1*
X1487474Y5227564D1*
X1503278Y5239248D1*
X1487474Y5251009D1*
X1470652Y5267830D1*
X1456670Y5287076D1*
X1445870Y5308272D1*
X1438519Y5330896D1*
X1434797Y5354392D1*
Y5378181D1*
X1438519Y5401677D1*
X1445870Y5424301D1*
X1456670Y5445497D1*
X1470652Y5464743D1*
X1487474Y5481564D1*
X1506719Y5495547D1*
X1527915Y5506347D1*
X1550540Y5513698D1*
X1574036Y5517419D1*
X1597824D1*
X1621320Y5513698D1*
X1643945Y5506347D1*
X1665141Y5495547D1*
X1684386Y5481564D1*
X1701208Y5464743D1*
X1712891Y5448938D1*
X1724652Y5464743D1*
X1741474Y5481564D1*
X1760719Y5495547D1*
X1781915Y5506347D1*
X1804540Y5513698D1*
X1828036Y5517419D1*
X1851824D1*
X1875320Y5513698D1*
X1897945Y5506347D1*
X1919141Y5495547D1*
X1938386Y5481564D1*
X1955208Y5464743D1*
X1966891Y5448938D1*
X1978652Y5464743D1*
X1995474Y5481564D1*
X2014719Y5495547D1*
X2035915Y5506347D1*
X2058540Y5513698D1*
X2082036Y5517419D1*
X2105824D1*
X2129320Y5513698D1*
X2151945Y5506347D1*
X2173141Y5495547D1*
X2192386Y5481564D1*
X2209208Y5464743D1*
X2223190Y5445497D1*
X2233990Y5424301D1*
X2241341Y5401677D1*
X2245063Y5378181D1*
Y5354392D1*
X2241341Y5330896D1*
X2233990Y5308272D1*
X2223190Y5287076D1*
X2209208Y5267830D1*
X2192386Y5251009D1*
X2176582Y5239326D1*
X2192386Y5227564D1*
X2209208Y5210743D1*
X2220891Y5194938D1*
X2232652Y5210743D1*
X2249474Y5227564D1*
X2268719Y5241547D1*
X2289915Y5252347D1*
X2312540Y5259698D1*
X2336036Y5263419D1*
X2359824D1*
X2383320Y5259698D1*
X2405945Y5252347D1*
X2427141Y5241547D1*
X2446386Y5227564D1*
X2463208Y5210743D1*
X2474891Y5194938D1*
X2486652Y5210743D1*
X2503474Y5227564D1*
X2519278Y5239248D1*
X2503474Y5251009D1*
X2486652Y5267830D1*
X2472670Y5287076D1*
X2461870Y5308272D1*
X2454519Y5330896D1*
X2450797Y5354392D1*
Y5378181D1*
X2454519Y5401677D1*
X2461870Y5424301D1*
X2472670Y5445497D1*
X2486652Y5464743D1*
X2503474Y5481564D1*
X2522719Y5495547D1*
X2543915Y5506347D1*
X2566540Y5513698D1*
X2590036Y5517419D1*
X2613824D1*
X2637320Y5513698D1*
X2659945Y5506347D1*
X2681141Y5495547D1*
X2700386Y5481564D1*
X2717208Y5464743D1*
X2728891Y5448938D1*
X2740652Y5464743D1*
X2757474Y5481564D1*
X2776719Y5495547D1*
X2797915Y5506347D1*
X2820540Y5513698D1*
X2844036Y5517419D1*
X2867824D1*
X2891320Y5513698D1*
X2913945Y5506347D1*
X2935141Y5495547D1*
X2954386Y5481564D1*
X2971208Y5464743D1*
X2985190Y5445497D1*
X2995990Y5424301D1*
X3003341Y5401677D1*
X3007063Y5378181D1*
Y5354392D1*
X3003341Y5330896D1*
X2995990Y5308272D1*
X2985190Y5287076D1*
X2971208Y5267830D1*
X2954386Y5251009D1*
X2938582Y5239326D1*
X2954386Y5227564D1*
X2971208Y5210743D1*
X2982891Y5194938D1*
X2994652Y5210743D1*
X3011474Y5227564D1*
X3030719Y5241547D1*
X3051915Y5252347D1*
X3074540Y5259698D1*
X3098036Y5263419D1*
X3121824D1*
X3145320Y5259698D1*
X3167945Y5252347D1*
X3189141Y5241547D1*
X3208386Y5227564D1*
X3225208Y5210743D1*
X3236891Y5194938D1*
X3248652Y5210743D1*
X3265474Y5227564D1*
X3281278Y5239248D1*
X3265474Y5251009D1*
X3248652Y5267830D1*
X3234670Y5287076D1*
X3223870Y5308272D1*
X3216519Y5330896D1*
X3212797Y5354392D1*
Y5378181D1*
X3216519Y5401677D1*
X3223870Y5424301D1*
X3234670Y5445497D1*
X3248652Y5464743D1*
X3265474Y5481564D1*
X3284719Y5495547D1*
X3305915Y5506347D1*
X3328540Y5513698D1*
X3352036Y5517419D1*
X3375824D1*
X3399320Y5513698D1*
X3421945Y5506347D1*
X3443141Y5495547D1*
X3462386Y5481564D1*
X3479208Y5464743D1*
X3490891Y5448938D1*
X3502652Y5464743D1*
X3519474Y5481564D1*
X3538719Y5495547D1*
X3559915Y5506347D1*
X3582540Y5513698D1*
X3606036Y5517419D1*
X3629824D1*
X3653320Y5513698D1*
X3675945Y5506347D1*
X3697141Y5495547D1*
X3716386Y5481564D1*
X3733208Y5464743D1*
X3744891Y5448938D1*
X3756652Y5464743D1*
X3773474Y5481564D1*
X3792719Y5495547D1*
X3813915Y5506347D1*
X3836540Y5513698D1*
X3860036Y5517419D1*
X3883824D1*
X3907320Y5513698D1*
X3929945Y5506347D1*
X3951141Y5495547D1*
X3970386Y5481564D1*
X3987208Y5464743D1*
X3998891Y5448938D1*
X4010652Y5464743D1*
X4027474Y5481564D1*
X4046719Y5495547D1*
X4067915Y5506347D1*
X4090540Y5513698D1*
X4114036Y5517419D1*
X4137824D1*
X4161320Y5513698D1*
X4183945Y5506347D1*
X4205141Y5495547D1*
X4224386Y5481564D1*
X4241208Y5464743D1*
X4255190Y5445497D1*
X4265990Y5424301D1*
X4273341Y5401677D1*
X4277063Y5378181D1*
Y5354392D1*
X4273341Y5330896D1*
X4265990Y5308272D1*
X4255190Y5287076D1*
X4241208Y5267830D1*
X4224386Y5251009D1*
X4208582Y5239326D1*
X4224386Y5227564D1*
X4241208Y5210743D1*
X4252891Y5194938D1*
X4264652Y5210743D1*
X4281474Y5227564D1*
X4300719Y5241547D1*
X4321915Y5252347D1*
X4344540Y5259698D1*
X4368036Y5263419D1*
X4391824D1*
X4415320Y5259698D1*
X4437945Y5252347D1*
X4459141Y5241547D1*
X4478386Y5227564D1*
X4495208Y5210743D1*
X4506891Y5194938D1*
X4518652Y5210743D1*
X4535474Y5227564D1*
X4551278Y5239248D1*
X4535474Y5251009D1*
X4518652Y5267830D1*
X4504670Y5287076D1*
X4493870Y5308272D1*
X4486519Y5330896D1*
X4482797Y5354392D1*
Y5378181D1*
X4486519Y5401677D1*
X4493870Y5424301D1*
X4504670Y5445497D1*
X4518652Y5464743D1*
X4535474Y5481564D1*
X4554719Y5495547D1*
X4575915Y5506347D1*
X4598540Y5513698D1*
X4622036Y5517419D1*
X4645824D1*
X4669320Y5513698D1*
X4691945Y5506347D1*
X4713141Y5495547D1*
X4732386Y5481564D1*
X4749208Y5464743D1*
X4763190Y5445497D1*
X4773990Y5424301D1*
X4781341Y5401677D1*
X4785063Y5378181D1*
Y5354392D1*
X4781341Y5330896D1*
X4773990Y5308272D1*
X4763190Y5287076D1*
X4749208Y5267830D1*
X4732386Y5251009D1*
X4716582Y5239326D1*
X4732386Y5227564D1*
X4749208Y5210743D1*
X4760891Y5194938D1*
X4772652Y5210743D1*
X4789474Y5227564D1*
X4808719Y5241547D1*
X4829915Y5252347D1*
X4852540Y5259698D1*
X4876036Y5263419D1*
X4899824D1*
X4923320Y5259698D1*
X4945945Y5252347D1*
X4967141Y5241547D1*
X4986386Y5227564D1*
X5003208Y5210743D1*
X5014891Y5194938D1*
X5026652Y5210743D1*
X5043474Y5227564D1*
X5059278Y5239248D1*
X5043474Y5251009D1*
X5026652Y5267830D1*
X5012670Y5287076D1*
X5001870Y5308272D1*
X4994519Y5330896D1*
X4990797Y5354392D1*
Y5378181D1*
X4994519Y5401677D1*
X5001870Y5424301D1*
X5012670Y5445497D1*
X5026652Y5464743D1*
X5043474Y5481564D1*
X5062719Y5495547D1*
X5083915Y5506347D1*
X5106540Y5513698D1*
X5130036Y5517419D1*
X5153824D1*
X5177320Y5513698D1*
X5199945Y5506347D1*
X5221141Y5495547D1*
X5240386Y5481564D1*
X5257208Y5464743D1*
X5268891Y5448938D1*
X5280652Y5464743D1*
X5297474Y5481564D1*
X5316719Y5495547D1*
X5337915Y5506347D1*
X5360540Y5513698D1*
X5384036Y5517419D1*
X5407824D1*
X5431320Y5513698D1*
X5453945Y5506347D1*
X5475141Y5495547D1*
X5494386Y5481564D1*
X5511208Y5464743D1*
X5522891Y5448938D1*
X5534652Y5464743D1*
X5551474Y5481564D1*
X5570719Y5495547D1*
X5591915Y5506347D1*
X5614540Y5513698D1*
X5638036Y5517419D1*
X5661824D1*
X5685320Y5513698D1*
X5707945Y5506347D1*
X5729141Y5495547D1*
X5748386Y5481564D1*
X5765208Y5464743D1*
X5779190Y5445497D1*
X5789990Y5424301D1*
X5797341Y5401677D1*
X5801063Y5378181D1*
Y5354392D1*
X5797341Y5330896D1*
X5789990Y5308272D1*
X5779190Y5287076D1*
X5765208Y5267830D1*
X5748386Y5251009D1*
X5729141Y5237026D1*
X5707945Y5226227D1*
X5685320Y5218875D1*
X5661824Y5215154D1*
X5638036D1*
X5614540Y5218875D1*
X5591915Y5226227D1*
X5570719Y5237026D1*
X5551474Y5251009D1*
X5534652Y5267830D1*
X5522969Y5283635D1*
X5511208Y5267830D1*
X5494386Y5251009D1*
X5478582Y5239326D1*
X5494386Y5227564D1*
X5511208Y5210743D1*
X5525190Y5191497D1*
X5535990Y5170301D1*
X5543341Y5147677D1*
X5547063Y5124181D1*
Y5100392D1*
X5543341Y5076896D1*
X5535990Y5054272D1*
X5525190Y5033076D1*
X5511208Y5013830D1*
X5494386Y4997009D1*
X5475141Y4983026D1*
X5453945Y4972227D1*
X5431320Y4964875D1*
X5407824Y4961154D1*
X5384036D1*
X5360540Y4964875D1*
X5337915Y4972227D1*
X5316719Y4983026D1*
X5297474Y4997009D1*
X5280652Y5013830D1*
X5268969Y5029635D1*
X5257208Y5013830D1*
X5240386Y4997009D1*
X5221141Y4983026D1*
X5199945Y4972227D1*
X5177320Y4964875D1*
X5153824Y4961154D1*
X5130036D1*
X5106540Y4964875D1*
X5083915Y4972227D1*
X5062719Y4983026D1*
X5043474Y4997009D1*
X5026652Y5013830D1*
X5014969Y5029635D1*
X5003208Y5013830D1*
X4986386Y4997009D1*
X4967141Y4983026D1*
X4945945Y4972227D1*
X4923320Y4964875D1*
X4899824Y4961154D1*
X4876036D1*
X4852540Y4964875D1*
X4829915Y4972227D1*
X4808719Y4983026D1*
X4789474Y4997009D1*
X4772652Y5013830D1*
X4760969Y5029635D1*
X4749208Y5013830D1*
X4732386Y4997009D1*
X4713141Y4983026D1*
X4691945Y4972227D1*
X4669320Y4964875D1*
X4645824Y4961154D1*
X4622036D1*
X4598540Y4964875D1*
X4575915Y4972227D1*
X4554719Y4983026D1*
X4535474Y4997009D1*
X4518652Y5013830D1*
X4506969Y5029635D1*
X4495208Y5013830D1*
X4478386Y4997009D1*
X4459141Y4983026D1*
X4437945Y4972227D1*
X4415320Y4964875D1*
X4391824Y4961154D1*
X4368036D1*
X4344540Y4964875D1*
X4321915Y4972227D1*
X4300719Y4983026D1*
X4281474Y4997009D1*
X4264652Y5013830D1*
X4252969Y5029635D1*
X4241208Y5013830D1*
X4224386Y4997009D1*
X4205141Y4983026D1*
X4183945Y4972227D1*
X4161320Y4964875D1*
X4137824Y4961154D1*
X4114036D1*
X4090540Y4964875D1*
X4067915Y4972227D1*
X4046719Y4983026D1*
X4027474Y4997009D1*
X4010652Y5013830D1*
X3996670Y5033076D1*
X3985870Y5054272D1*
X3978519Y5076896D1*
X3974797Y5100392D1*
Y5124181D1*
X3978519Y5147677D1*
X3985870Y5170301D1*
X3996670Y5191497D1*
X4010652Y5210743D1*
X4027474Y5227564D1*
X4043278Y5239248D1*
X4027474Y5251009D1*
X4010652Y5267830D1*
X3998969Y5283635D1*
X3987208Y5267830D1*
X3970386Y5251009D1*
X3951141Y5237026D1*
X3929945Y5226227D1*
X3907320Y5218875D1*
X3883824Y5215154D1*
X3860036D1*
X3836540Y5218875D1*
X3813915Y5226227D1*
X3792719Y5237026D1*
X3773474Y5251009D1*
X3756652Y5267830D1*
X3744969Y5283635D1*
X3733208Y5267830D1*
X3716386Y5251009D1*
X3700582Y5239326D1*
X3716386Y5227564D1*
X3733208Y5210743D1*
X3747190Y5191497D1*
X3757990Y5170301D1*
X3765341Y5147677D1*
X3769063Y5124181D1*
Y5100392D1*
X3765341Y5076896D1*
X3757990Y5054272D1*
X3747190Y5033076D1*
X3733208Y5013830D1*
X3716386Y4997009D1*
X3697141Y4983026D1*
X3675945Y4972227D1*
X3653320Y4964875D1*
X3629824Y4961154D1*
X3606036D1*
X3582540Y4964875D1*
X3559915Y4972227D1*
X3538719Y4983026D1*
X3519474Y4997009D1*
X3502652Y5013830D1*
X3490969Y5029635D1*
X3479208Y5013830D1*
X3462386Y4997009D1*
X3443141Y4983026D1*
X3421945Y4972227D1*
X3399320Y4964875D1*
X3375824Y4961154D1*
X3352036D1*
X3328540Y4964875D1*
X3305915Y4972227D1*
X3284719Y4983026D1*
X3265474Y4997009D1*
X3248652Y5013830D1*
X3236969Y5029635D1*
X3225208Y5013830D1*
X3208386Y4997009D1*
X3189141Y4983026D1*
X3167945Y4972227D1*
X3145320Y4964875D1*
X3121824Y4961154D1*
X3098036D1*
X3074540Y4964875D1*
X3051915Y4972227D1*
X3030719Y4983026D1*
X3011474Y4997009D1*
X2994652Y5013830D1*
X2982969Y5029635D1*
X2971208Y5013830D1*
X2954386Y4997009D1*
X2935141Y4983026D1*
X2913945Y4972227D1*
X2891320Y4964875D1*
X2867824Y4961154D1*
X2844036D1*
X2820540Y4964875D1*
X2797915Y4972227D1*
X2776719Y4983026D1*
X2757474Y4997009D1*
X2740652Y5013830D1*
X2728969Y5029635D1*
X2717208Y5013830D1*
X2700386Y4997009D1*
X2681141Y4983026D1*
X2659945Y4972227D1*
X2637320Y4964875D1*
X2613824Y4961154D1*
X2590036D1*
X2566540Y4964875D1*
X2543915Y4972227D1*
X2522719Y4983026D1*
X2503474Y4997009D1*
X2486652Y5013830D1*
X2474969Y5029635D1*
X2463208Y5013830D1*
X2446386Y4997009D1*
X2427141Y4983026D1*
X2405945Y4972227D1*
X2383320Y4964875D1*
X2359824Y4961154D1*
X2336036D1*
X2312540Y4964875D1*
X2289915Y4972227D1*
X2268719Y4983026D1*
X2249474Y4997009D1*
X2232652Y5013830D1*
X2220969Y5029635D1*
X2209208Y5013830D1*
X2192386Y4997009D1*
X2173141Y4983026D1*
X2151945Y4972227D1*
X2129320Y4964875D1*
X2105824Y4961154D1*
X2082036D1*
X2058540Y4964875D1*
X2035915Y4972227D1*
X2014719Y4983026D1*
X1995474Y4997009D1*
X1978652Y5013830D1*
X1964670Y5033076D1*
X1953870Y5054272D1*
X1946519Y5076896D1*
X1942797Y5100392D1*
Y5124181D1*
X1946519Y5147677D1*
X1953870Y5170301D1*
X1964670Y5191497D1*
X1978652Y5210743D1*
X1995474Y5227564D1*
X2011278Y5239248D1*
X1995474Y5251009D1*
X1978652Y5267830D1*
X1966969Y5283635D1*
X1955208Y5267830D1*
X1938386Y5251009D1*
X1919141Y5237026D1*
X1897945Y5226227D1*
X1875320Y5218875D1*
X1851824Y5215154D1*
X1828036D1*
X1804540Y5218875D1*
X1781915Y5226227D1*
X1760719Y5237026D1*
X1741474Y5251009D1*
X1724652Y5267830D1*
X1712969Y5283635D1*
X1701208Y5267830D1*
X1684386Y5251009D1*
X1668582Y5239326D1*
X1684386Y5227564D1*
X1701208Y5210743D1*
X1715190Y5191497D1*
X1725990Y5170301D1*
X1733341Y5147677D1*
X1737063Y5124181D1*
Y5100392D1*
X1733341Y5076896D1*
X1725990Y5054272D1*
X1715190Y5033076D1*
X1701208Y5013830D1*
X1684386Y4997009D1*
X1665141Y4983026D1*
X1643945Y4972227D1*
X1621320Y4964875D1*
X1597824Y4961154D1*
X1574036D1*
X1550540Y4964875D1*
X1527915Y4972227D1*
X1506719Y4983026D1*
X1487474Y4997009D1*
X1470652Y5013830D1*
X1458969Y5029635D1*
X1447208Y5013830D1*
X1430386Y4997009D1*
X1411141Y4983026D1*
X1389945Y4972227D1*
X1367320Y4964875D1*
X1343824Y4961154D1*
X1320036D1*
X1312509Y4962045D1*
X1312513Y4888490D1*
X2104464Y4096281D1*
X2111529Y4086557D1*
X2116986Y4075847D1*
X2120700Y4064415D1*
X2122581Y4052543D1*
X2122817Y3986533D1*
Y2727393D1*
X2132458Y2715965D1*
X2141198Y2701702D1*
X2147599Y2686248D1*
X2151504Y2669983D1*
X2152817Y2653307D1*
X2151504Y2636631D1*
X2147599Y2620365D1*
X2141198Y2604911D1*
X2132458Y2590649D1*
X2122771Y2579202D1*
X2122817Y2507604D1*
X2143628Y2528966D1*
X2925879Y3310622D1*
X2943220Y3323221D1*
X2962319Y3332952D1*
X2982705Y3339576D1*
X3003876Y3342929D1*
X3034593Y3343350D1*
X4565184Y3342929D1*
X4586355Y3339576D1*
X4606741Y3332952D1*
X4625840Y3323221D1*
X4643181Y3310622D1*
X4665200Y3289199D1*
X5030255Y2923548D1*
X5042854Y2906207D1*
X5052585Y2887108D1*
X5059209Y2866722D1*
X5062562Y2845551D1*
X5062984Y2814833D1*
Y2513818D1*
X5067984Y2513806D1*
Y2289041D1*
X5068817Y2276373D1*
Y2106451D1*
X5214094Y2106480D1*
Y2091870D1*
X5228321Y2091980D1*
X5228350Y2127150D1*
X5232960D1*
X5232993Y2349423D1*
X5636193D1*
Y2127161D1*
X6012591Y2127149D1*
Y1903949D1*
X5586785D1*
X5582359Y1889646D1*
X5576545Y1878237D1*
X5569019Y1867878D1*
X5558759Y1857262D1*
X5631550Y1857250D1*
Y1634050D1*
X5228350D1*
Y1644128D1*
X5214091Y1644050D1*
X5214094Y1573870D1*
X5443337Y1573980D1*
X5456102Y1572975D1*
X5468552Y1569986D1*
X5480382Y1565086D1*
X5491300Y1558396D1*
X5501037Y1550080D1*
X5600766Y1449995D1*
X5608292Y1439636D1*
X5614105Y1428227D1*
X5618062Y1416049D1*
X5620065Y1403402D1*
X5620317Y1337000D1*
Y1239266D1*
X5841421Y1239199D1*
Y835999D1*
X5618221D1*
Y840140D1*
X5244227Y840213D1*
Y1063413D1*
X5253368D1*
X5253350Y1073393D1*
X5233350Y1073363D1*
Y1095472D1*
X5222718Y1100100D1*
X5209124Y1108430D1*
X5197001Y1118784D1*
X5183467Y1132319D1*
X5142297Y1132280D1*
X5141973Y848494D1*
X5139233Y831197D1*
X5133822Y814542D1*
X5125871Y798939D1*
X5115578Y784771D1*
X5086925Y755632D1*
X5098114Y758284D1*
X5110097Y759227D1*
X5395590Y759343D1*
Y762543D1*
X5798790D1*
Y752465D1*
X5836018Y752543D1*
X5836406Y778629D1*
X5838359Y795128D1*
X5841601Y811424D1*
X5846111Y827415D1*
X5851861Y843002D1*
X5858817Y858091D1*
X5866936Y872587D1*
X5876166Y886402D1*
X5886452Y899450D1*
X5897730Y911650D1*
X5909931Y922929D1*
X5922979Y933215D1*
X5936793Y942445D1*
X5951290Y950564D1*
X5966378Y957520D1*
X5981966Y963270D1*
X5997957Y967780D1*
X6014253Y971022D1*
X6030752Y972974D1*
X6047354Y973627D1*
X6063956Y972974D1*
X6080456Y971022D1*
X6096751Y967780D1*
X6112742Y963270D1*
X6128330Y957520D1*
X6143419Y950564D1*
X6157915Y942445D1*
X6171730Y933215D1*
X6184777Y922929D1*
X6196978Y911650D1*
X6208256Y899450D1*
X6218542Y886402D1*
X6227773Y872587D1*
X6235891Y858091D1*
X6242847Y843002D1*
X6248598Y827415D1*
X6253108Y811424D1*
X6256349Y795128D1*
X6258302Y778629D1*
X6258954Y762027D1*
X6258302Y745425D1*
X6256349Y728925D1*
X6253108Y712630D1*
X6248598Y696639D1*
X6242847Y681051D1*
X6235891Y665962D1*
X6227773Y651466D1*
X6218542Y637651D1*
X6208256Y624603D1*
X6196978Y612403D1*
X6184777Y601125D1*
X6171730Y590839D1*
X6157915Y581608D1*
X6143419Y573490D1*
X6128330Y566534D1*
X6112742Y560783D1*
X6096751Y556273D1*
X6080456Y553032D1*
X6063956Y551079D1*
X6047354Y550427D1*
X6030752Y551079D1*
X6014253Y553032D1*
X5997957Y556273D1*
X5982396Y560417D1*
X5967667Y554316D1*
X5952165Y550594D1*
X5936271Y549343D1*
X5798849D1*
X5798790Y539343D1*
X5794181D1*
X5794147Y206772D1*
X5841062Y206850D1*
X5838359Y220925D1*
X5836406Y237425D1*
X5835754Y254027D1*
X5836406Y270629D1*
X5838359Y287128D1*
X5841601Y303424D1*
X5846111Y319415D1*
X5851861Y335002D1*
X5858817Y350091D1*
X5866936Y364587D1*
X5876166Y378402D1*
X5886452Y391450D1*
X5897730Y403650D1*
X5909931Y414929D1*
X5922979Y425215D1*
X5936793Y434445D1*
X5951290Y442564D1*
X5966378Y449520D1*
X5981966Y455270D1*
X5997957Y459780D1*
X6014253Y463022D1*
X6030752Y464974D1*
X6047354Y465627D1*
X6063956Y464974D1*
X6080456Y463022D1*
X6096751Y459780D1*
X6112742Y455270D1*
X6128330Y449520D1*
X6143419Y442564D1*
X6157915Y434445D1*
X6171730Y425215D1*
X6184777Y414929D1*
X6196978Y403650D1*
X6208256Y391450D1*
X6218542Y378402D1*
X6227773Y364587D1*
X6235891Y350091D1*
X6242847Y335002D1*
X6248598Y319415D1*
X6253108Y303424D1*
X6256349Y287128D1*
X6258302Y270629D1*
X6258954Y254027D1*
X6258302Y237425D1*
X4204840Y641637D2*
Y700699D1*
X4186704Y703467D1*
X4170049Y708878D1*
X4154446Y716829D1*
X4140278Y727122D1*
X4131683Y735408D1*
X4069240Y735384D1*
X4065864Y731583D1*
Y710383D1*
X3782664D1*
Y735399D1*
X3776998Y735383D1*
X3777067Y703733D1*
X3933494Y703776D1*
X3933707Y638777D1*
X3934532Y638744D1*
X3940372Y638776D1*
X3940294Y703776D1*
X4153494D1*
Y682136D1*
X4164131Y673291D1*
X4192802Y644620D1*
X4204869Y641568D1*
X4865718Y2120606D2*
X4504784D1*
Y2513806D1*
X4789862D1*
X4789783Y2778222D1*
X4497839Y3070196D1*
X3071107Y3070150D1*
X2362590Y2361565D1*
X2362677Y2253155D1*
X2367677Y2253197D1*
Y2202650D1*
X2375950Y2211723D1*
X2392846Y2226153D1*
X2411792Y2237763D1*
X2432320Y2246266D1*
X2453926Y2251453D1*
X2473516Y2253096D1*
X2477807Y2267301D1*
X2483264Y2278011D1*
X2490329Y2287735D1*
X2579265Y2377005D1*
X2772098Y2569504D1*
X2781822Y2576569D1*
X2792532Y2582026D1*
X2803964Y2585740D1*
X2815836Y2587621D1*
X2881846Y2587857D1*
X3944580D1*
X3938164Y2599973D1*
X3937814Y2600921D1*
X3938164Y2599973D1*
X3928642Y2608775D1*
X3912343Y2622696D1*
X3898422Y2638995D1*
X3887222Y2657272D1*
X3879019Y2677075D1*
X3874015Y2697918D1*
X3872333Y2719287D1*
Y2819287D1*
X3874015Y2840656D1*
X3879019Y2861498D1*
X3887222Y2881302D1*
X3898422Y2899578D1*
X3912343Y2915877D1*
X3928642Y2929798D1*
X3946918Y2940998D1*
X3966722Y2949201D1*
X3987564Y2954205D1*
X4008933Y2955887D1*
X4030302Y2954205D1*
X4051145Y2949201D1*
X4070948Y2940998D1*
X4089225Y2929798D1*
X4096365Y2924170D1*
X4112560Y2935757D1*
X4131659Y2945489D1*
X4152045Y2952112D1*
X4173216Y2955466D1*
X4194651D1*
X4215822Y2952112D1*
X4236208Y2945489D1*
X4255307Y2935757D1*
X4272648Y2923158D1*
X4287805Y2908001D1*
X4300404Y2890660D1*
X4310135Y2871561D1*
X4316759Y2851175D1*
X4320112Y2830004D1*
X4320533Y2779287D1*
Y2719287D1*
X4318852Y2697918D1*
X4313848Y2677075D1*
X4305645Y2657272D1*
X4294445Y2638995D1*
X4280524Y2622696D1*
X4264225Y2608775D1*
X4255899Y2603212D1*
X4252185Y2594511D1*
X4245904Y2584262D1*
X4238098Y2575122D1*
X4200478Y2537502D1*
X4200297Y2509386D1*
X4198417Y2497514D1*
X4194703Y2486082D1*
X4189246Y2475372D1*
X4182181Y2465648D1*
X4135671Y2418805D1*
X4114542Y2398009D1*
X4104818Y2390944D1*
X4094108Y2385487D1*
X4082676Y2381773D1*
X4070804Y2379893D1*
X4004794Y2379656D1*
X2876279D1*
X2736434Y2239734D1*
X2750062Y2232331D1*
X2768039Y2219270D1*
X2783750Y2203559D1*
X2796811Y2185582D1*
X2806898Y2165785D1*
X2813764Y2144653D1*
X2817240Y2122706D1*
Y2100487D1*
X2813764Y2078541D1*
X2806898Y2057409D1*
X2796811Y2037611D1*
X2783750Y2019635D1*
X2768039Y2003923D1*
X2750062Y1990863D1*
X2730265Y1980775D1*
X2709133Y1973909D1*
X2687186Y1970433D1*
X2664967D1*
X2643021Y1973909D1*
X2621889Y1980775D1*
X2602091Y1990863D1*
X2584115Y2003923D1*
X2576110Y2011323D1*
X2559307Y1997040D1*
X2540362Y1985430D1*
X2519833Y1976927D1*
X2498228Y1971740D1*
X2476077Y1969997D1*
X2453926Y1971740D1*
X2432320Y1976927D1*
X2411792Y1985430D1*
X2392846Y1997040D1*
X2375950Y2011470D1*
X2367677Y2020556D1*
Y1969997D1*
X2122755D1*
X2122817Y1936666D1*
X2300194Y1759352D1*
X3385727Y1759114D1*
X3397599Y1757234D1*
X3409030Y1753519D1*
X3419740Y1748062D1*
X3429464Y1740997D1*
X3476307Y1694488D1*
X3967093Y1203723D1*
X3979076Y1202780D1*
X3990764Y1199974D1*
X4001869Y1195374D1*
X4012118Y1189094D1*
X4021258Y1181288D1*
X4127510Y1074701D1*
X4134576Y1064977D1*
X4140033Y1054267D1*
X4143747Y1042835D1*
X4145627Y1030963D1*
X4145864Y1020813D1*
X4155010Y1011731D1*
X4162076Y1002007D1*
X4167533Y991297D1*
X4171247Y979865D1*
X4173127Y967993D1*
Y955973D1*
X4171247Y944101D1*
X4169226Y936818D1*
X4172213Y925209D1*
X4173222Y916319D1*
X4186704Y920500D1*
X4204001Y923239D1*
X4272757Y923583D1*
X4524127Y923753D1*
Y1120953D1*
X4919205D1*
X4919116Y1132244D1*
X4784894Y1132280D1*
Y1852480D1*
Y2106480D1*
X4865597D1*
X4865617Y2120614D1*
X527681Y720786D2*
X567759D1*
X567680Y775984D1*
X358842Y984754D1*
X358874Y806520D1*
X59952D1*
X60000Y303717D1*
X68697Y237869D1*
X92644Y180156D1*
X130728Y130571D1*
X180347Y92533D1*
X238120Y68633D1*
X304221Y59962D1*
X1642906Y60000D1*
X1665565Y64320D1*
X1684119Y73433D1*
X1699584Y87125D1*
X1710873Y104423D1*
X1717179Y124092D1*
X1718347Y150883D1*
X1718589Y1133129D1*
X1720523Y1139080D1*
X1724201Y1144142D1*
X1729263Y1147820D1*
X1735214Y1149754D1*
X1758343Y1150000D1*
X3431472Y1149754D1*
X3437423Y1147820D1*
X3442485Y1144142D1*
X3446163Y1139080D1*
X3448097Y1133129D1*
X3448343Y1110000D1*
Y161613D1*
X3450365Y132749D1*
X3457982Y110512D1*
X3471060Y90981D1*
X3488719Y75469D1*
X3509772Y65017D1*
X3534619Y59957D1*
X3547923Y70673D1*
Y453873D1*
X3553939D1*
X3553866Y777873D1*
X3555240Y795331D1*
X3559328Y812360D1*
X3566030Y828539D1*
X3575180Y843470D1*
X3586553Y856787D1*
X3599870Y868160D1*
X3614801Y877310D1*
X3627094Y882578D1*
X3607223Y902752D1*
X3600158Y912477D1*
X3594701Y923186D1*
X3590986Y934618D1*
X3589106Y946490D1*
X3588870Y1012500D1*
Y1174766D1*
X3300344Y1463293D1*
X2198960Y1463509D1*
X2187088Y1465390D1*
X2175656Y1469104D1*
X2164947Y1474561D1*
X2155222Y1481626D1*
X2108379Y1528135D1*
X1781596Y1855252D1*
X1774531Y1864977D1*
X1769074Y1875686D1*
X1765360Y1887118D1*
X1763479Y1898990D1*
X1763243Y1965000D1*
Y2378984D1*
X1633985Y2379024D1*
X1633944Y2187301D1*
X1652543Y2187320D1*
X1652544Y1496119D1*
Y1115119D1*
X1364653D1*
X1254718Y1005490D1*
X1244993Y998424D1*
X1234284Y992967D1*
X1222852Y989253D1*
X1210980Y987373D1*
X1144970Y987137D1*
X960829D1*
X995132Y952847D1*
X1235969Y952886D1*
X1255977Y953280D1*
X1459177D1*
Y550079D1*
X1235977D1*
Y661782D1*
X1232486Y651326D1*
X1226672Y639917D1*
X1219146Y629558D1*
X1203583Y613639D1*
X1203577Y409720D1*
X1015377D1*
Y637920D1*
X1027955D1*
X1028881Y647698D1*
X1031870Y660149D1*
X1036770Y671979D1*
X1043461Y682897D1*
X1051777Y692633D1*
X1075476Y716333D1*
X1075496Y729663D1*
X865891Y729686D1*
Y865545D1*
X670423Y1061232D1*
X663357Y1070956D1*
X659996Y1077122D1*
X658874Y1077219D1*
Y1069019D1*
X505358D1*
X711329Y862712D1*
X718856Y852353D1*
X724669Y840944D1*
X728626Y828766D1*
X730629Y816119D1*
X730880Y749717D1*
Y720732D1*
X790881Y720786D1*
Y517586D1*
X507681D1*
Y523602D1*
X496919Y521961D1*
X495894Y521921D1*
X494217Y509910D1*
Y456710D1*
X447420D1*
X459092Y444519D1*
X472614Y425908D1*
X483057Y405411D1*
X490166Y383533D1*
X493767Y360767D1*
X507662Y360787D1*
X507681Y380786D1*
X790881D1*
Y360708D1*
X920452Y360787D1*
X920377Y407920D1*
X1108577D1*
Y179720D1*
X920377D1*
Y197610D1*
X790859Y197587D1*
X790881Y177586D1*
X507681D1*
Y197664D1*
X411338Y197838D1*
X398691Y199841D1*
X386513Y203798D1*
X380673Y206493D1*
X359119Y203162D1*
X336115D1*
X313394Y206761D1*
X291515Y213869D1*
X271018Y224313D1*
X252408Y237834D1*
X236141Y254101D1*
X222620Y272712D1*
X212176Y293209D1*
X205067Y315087D1*
X201469Y337808D1*
Y360812D1*
X205067Y383533D1*
X212176Y405411D1*
X222620Y425908D1*
X236141Y444519D1*
X248016Y456726D1*
X201017Y456710D1*
Y749910D1*
X494217D1*
Y699832D1*
X506393Y700787D1*
X507269Y700753D1*
X507681Y720786D1*
X527681D1*
X829377Y637920D2*
X1013577D1*
Y409720D1*
X825377D1*
Y637920D1*
X829377D1*
X1081494Y2577223D2*
X1091572D1*
X1091745Y2673402D1*
X1093748Y2686049D1*
X1097705Y2698227D1*
X1103518Y2709636D1*
X1111044Y2719995D1*
X1157820Y2767127D1*
X1215348Y2824299D1*
X1225707Y2831826D1*
X1237116Y2837639D1*
X1249294Y2841596D1*
X1261941Y2843599D1*
X1328343Y2843850D1*
X1358578D1*
X1371395Y2853141D1*
X1386299Y2860736D1*
X1402208Y2865905D1*
X1418730Y2868521D1*
X1435457D1*
X1451979Y2865905D1*
X1467887Y2860736D1*
X1482792Y2853141D1*
X1496324Y2843309D1*
X1508153Y2831481D1*
X1517985Y2817948D1*
X1525579Y2803044D1*
X1530748Y2787135D1*
X1533365Y2770614D1*
Y2753886D1*
X1532158Y2744452D1*
X1546131Y2734366D1*
X1557959Y2722538D1*
X1567791Y2709005D1*
X1575386Y2694101D1*
X1580555Y2678192D1*
X1583171Y2661670D1*
Y2644943D1*
X1580555Y2628421D1*
X1575386Y2612513D1*
X1567791Y2597608D1*
X1557959Y2584076D1*
X1551533Y2577241D1*
X1633944Y2577223D1*
Y2542145D1*
X1763202Y2542226D1*
X1763243Y3926330D1*
X1753602Y3937842D1*
X1744862Y3952105D1*
X1738461Y3967559D1*
X1734556Y3983824D1*
X1733243Y4000500D1*
X1734556Y4017176D1*
X1738461Y4033441D1*
X1744862Y4048895D1*
X1753602Y4063158D1*
X1764466Y4075878D1*
X1777185Y4086741D1*
X1791448Y4095481D1*
X1805338Y4101305D1*
X1122666Y4784305D1*
X1115601Y4794030D1*
X1110144Y4804740D1*
X1106430Y4816171D1*
X1104549Y4828043D1*
X1104313Y4894053D1*
Y4934596D1*
X1101604Y4946534D1*
X1100863Y4959646D1*
X1100830Y4962475D1*
X1077930Y4960687D1*
X1054215Y4962553D1*
X1031083Y4968106D1*
X1009105Y4977210D1*
X988822Y4989640D1*
X970733Y5005089D1*
X955283Y5023178D1*
X950969Y5029635D1*
X939208Y5013830D1*
X922386Y4997009D1*
X915485Y4991568D1*
X915530Y4070021D1*
X1036370Y3948863D1*
X1044819Y3937234D1*
X1051344Y3924427D1*
X1055786Y3910757D1*
X1058035Y3896560D1*
X1058317Y3849373D1*
Y2413670D1*
X1061494Y2424023D1*
Y2577223D1*
X1081494D1*
X1112544Y1341960D2*
Y1140304D1*
X1173357Y1140337D1*
X1294196Y1261254D1*
X1283660Y1267704D1*
X1273923Y1276020D1*
X1267128Y1282815D1*
X1251395Y1285409D1*
X1235486Y1290578D1*
X1220582Y1298172D1*
X1207049Y1308004D1*
X1195221Y1319832D1*
X1185389Y1333365D1*
X1179286Y1345033D1*
X1166229Y1340972D1*
X1149707Y1338355D1*
X1132980D1*
X1116458Y1340972D1*
X1112524Y1342081D1*
X5514950Y1745650D2*
D21*
Y1634128D1*
Y1745650D2*
X5631472D1*
X4646383Y2513728D2*
Y2120684D1*
X4504862Y2317207D2*
X4646383D1*
X4650727Y1120875D2*
Y984353D1*
X4524205D2*
X4650727D1*
X780943Y2413638D2*
Y2190594D1*
X664422Y2302117D2*
X780943D1*
X3826893Y703698D2*
Y622177D1*
X3933415D1*
X919477Y637841D2*
Y409798D1*
X825455Y523820D2*
X1013499D1*
X5895990Y2127071D2*
Y1904028D1*
Y2015550D2*
X6012512D1*
X5729820Y1239121D2*
Y1122600D1*
X5841343D1*
X1347577Y666680D2*
Y550157D1*
X1236056Y666680D2*
X1459099D1*
X4069263Y911983D2*
X4173285D1*
X3924263Y886983D2*
Y710461D1*
X4784972Y1619380D2*
X5214016D1*
X385752Y1643120D2*
X522273D1*
X187273Y1109642D2*
Y806598D1*
Y958120D2*
X358795D1*
X187273Y2184642D2*
Y1881598D1*
Y2033120D2*
X358796D1*
X950943Y1206720D2*
X1112466D1*
D22*
X6047354Y254027D3*
Y762027D3*
Y1270027D3*
D23*
X5332903Y301657D3*
Y471657D3*
D24*
X5519593Y2237823D3*
X5349593D3*
X4491440Y619190D3*
X4321440D3*
D23*
X5158260Y349287D3*
Y519287D3*
D24*
X4888357Y619190D3*
X4718357D3*
X5344950Y1745650D3*
X5514950D3*
D25*
X4926383Y2317207D3*
X4646383D3*
D26*
X4840727Y984353D3*
X4650727D3*
D24*
X950943Y2302117D3*
X780943D3*
D28*
X649280Y619187D3*
Y279187D3*
D29*
X4094523Y222273D3*
X3704523D3*
D30*
X2226077Y2111597D3*
D31*
X2476077D3*
X2676077D3*
X2926077D3*
D32*
X1936077Y1376597D3*
X3216077D3*
D33*
X347617Y603310D3*
D34*
Y349310D3*
D36*
X4046893Y492177D3*
Y557177D3*
Y622177D3*
X3826893D3*
Y557177D3*
Y492177D3*
D38*
X1109477Y523820D3*
X919477D3*
X1014477Y293820D3*
D23*
X1347717Y2460623D3*
Y2290623D3*
X1173093Y2460623D3*
Y2290623D3*
X1522343Y2460623D3*
Y2290623D3*
D24*
X4316797Y396917D3*
X4486797D3*
X5507547Y301657D3*
X5677547D3*
X5507547Y476300D3*
X5677547D3*
X4491440Y238150D3*
X4321440D3*
D23*
X5344950Y1189963D3*
Y1359963D3*
D24*
X5360827Y951813D3*
X5530827D3*
X5682190Y650943D3*
X5512190D3*
X5344950Y2015550D3*
X5514950D3*
X5725990D3*
X5895990D3*
D23*
X5729820Y952600D3*
Y1122600D3*
D24*
X982490Y841287D3*
X1152490D3*
D23*
X1347577Y666680D3*
Y836680D3*
D40*
X823930Y5112287D3*
X1077930D3*
X1331930D3*
X1585930D3*
X1839930D3*
X2093930D3*
X2347930D3*
X2601930D3*
X2855930D3*
X3109930D3*
X3363930D3*
X3617930D3*
X3871930D3*
X823930Y5366287D3*
X1077930D3*
X1331930D3*
X1585930D3*
X1839930D3*
X2093930D3*
X2347930D3*
X2601930D3*
X2855930D3*
X3109930D3*
X3363930D3*
X3617930D3*
X3871930D3*
X4125930Y5112287D3*
Y5366287D3*
X4379930Y5112287D3*
Y5366287D3*
X4633930Y5112287D3*
Y5366287D3*
X4887930Y5112287D3*
Y5366287D3*
X5141930Y5112287D3*
Y5366287D3*
X5395930Y5112287D3*
Y5366287D3*
X5649930Y5112287D3*
Y5366287D3*
D41*
X4008933Y2769287D3*
X4183933D3*
D43*
X4069263Y811983D3*
Y861983D3*
Y911983D3*
Y961983D3*
X3779263D3*
Y911983D3*
Y861983D3*
Y811983D3*
D44*
X3924263Y886983D3*
D57*
X4951863Y269903D3*
Y334903D3*
Y399903D3*
Y464900D3*
D58*
X4656863D3*
Y399903D3*
Y334903D3*
Y269903D3*
D45*
X4804363Y367403D3*
D46*
X4999493Y1238380D3*
Y1365380D3*
Y1492380D3*
Y1619380D3*
Y1746380D3*
Y1873380D3*
Y2000380D3*
D47*
X4268993Y1619380D3*
D48*
X522273Y1143120D3*
Y1193120D3*
Y1243120D3*
Y1293120D3*
Y1343120D3*
Y1393120D3*
Y1443120D3*
Y1493120D3*
Y1543120D3*
Y1593120D3*
Y1643120D3*
Y1693120D3*
Y1743120D3*
Y1793120D3*
Y1843120D3*
D49*
X187273Y958120D3*
Y2033120D3*
D50*
X950943Y2095720D3*
Y1968720D3*
Y1841720D3*
Y1714720D3*
Y1587720D3*
Y1460720D3*
Y1333720D3*
Y1206720D3*
X1490943D3*
Y1333720D3*
Y1460720D3*
Y1587720D3*
Y1714720D3*
Y1841720D3*
Y1968720D3*
Y2095720D3*
M02*
